<?xml version="1.0" encoding="utf-8"?>
<!-- Generator: Adobe Illustrator 16.0.0, SVG Export Plug-In . SVG Version: 6.00 Build 0)  -->
<!DOCTYPE svg PUBLIC "-//W3C//DTD SVG 1.1//EN" "http://www.w3.org/Graphics/SVG/1.1/DTD/svg11.dtd">
<svg version="1.1" id="Capa_1" xmlns="http://www.w3.org/2000/svg" xmlns:xlink="http://www.w3.org/1999/xlink" x="0px" y="0px"
	 width="200px" height="200px" viewBox="0 0 200 200" enable-background="new 0 0 200 200" xml:space="preserve">
<g>
	<path fill="#E5B92E" d="M190.229,20.887c0,0-3.609,129.887-90.006,178.694c0,0-0.48-200.567-0.083-198.481
		C137.141,66.268,190.229,20.887,190.229,20.887"/>
	<path fill="#FFFFFF" d="M184.671,33.464c0,0-6.868,115.516-84.952,159.514c0,0,0.186-180.533,0.543-178.652
		c41.468,51.645,84.408,16.514,84.408,16.514"/>
	<path fill="#E5B92E" d="M181.898,38.479c0,0-11.357,108.78-81.537,150.094c0,0-0.315-169.236,0.006-167.47
		C138.816,66.271,181.898,38.479,181.898,38.479"/>
	<path fill="#FFDE5E" d="M10.132,20.889c0,0,52.839,45.385,90.009-19.789c0.397-2.086,0.41,198.487,0.41,198.487
		C13.758,150.78,10.132,20.889,10.132,20.889"/>
	<path fill="#FFFFFF" d="M15.319,30.544c2.022,1.648,41.455,37.946,84.943-16.215c0.358-1.88,0.01,178.351,0.01,178.351
		C22.189,148.683,15.319,33.166,15.319,33.166"/>
	<path fill="#FFDE5E" d="M20.294,40.31c0,0,39.699,28.356,80.073-19.206c0.324-1.767,0.119,166.599,0.119,166.599
		C30.305,146.388,20.294,40.31,20.294,40.31"/>
</g>
<g>
	<polygon fill="#A31A16" points="197.413,181.636 154.566,181.636 154.566,143.504 197.413,143.504 185.014,162.567 	"/>
	<polygon fill="#A31A16" points="3.888,181.636 46.735,181.636 46.735,143.504 3.888,143.504 16.288,162.567 	"/>
</g>
<path fill="#FFDE5F" d="M100.118,199.501"/>
<path fill="#FFDE5F" d="M190.659,21.193"/>
<rect x="35.373" y="127.132" fill="#E30D18" width="129.617" height="44.132"/>
<g enable-background="new    ">
	<path fill="#FFFFFF" d="M78.299,140.003c0,1.078-0.167,2.021-0.503,2.823c-0.335,0.804-0.811,1.466-1.428,1.992
		c-0.617,0.529-1.368,0.923-2.254,1.188c-0.887,0.262-1.881,0.394-2.983,0.394c-0.502,0-1.089-0.021-1.761-0.061
		c-0.671-0.043-1.329-0.132-1.977-0.263V133.95c0.647-0.119,1.321-0.201,2.021-0.244c0.7-0.039,1.302-0.06,1.806-0.06
		c1.066,0,2.033,0.117,2.901,0.359c0.869,0.238,1.614,0.616,2.237,1.129c0.622,0.515,1.102,1.175,1.437,1.977
		C78.131,137.913,78.299,138.879,78.299,140.003z M70.197,143.954c0.132,0.015,0.285,0.022,0.458,0.028s0.38,0.01,0.619,0.01
		c1.402,0,2.44-0.352,3.118-1.06c0.677-0.707,1.015-1.684,1.015-2.93c0-1.305-0.324-2.292-0.97-2.962
		c-0.647-0.67-1.671-1.007-3.072-1.007c-0.192,0-0.389,0.004-0.593,0.01c-0.204,0.006-0.396,0.021-0.575,0.044V143.954z"/>
	<path fill="#FFFFFF" d="M80.635,146.238v-12.45h8.408v2.354h-5.604v2.444h4.976v2.3h-4.976v3h6.019v2.353H80.635z"/>
	<path fill="#FFFFFF" d="M94.918,144.102c0.395,0,0.721-0.033,0.979-0.1c0.258-0.065,0.464-0.155,0.621-0.27
		c0.154-0.112,0.264-0.25,0.323-0.405c0.06-0.156,0.09-0.329,0.09-0.519c0-0.409-0.192-0.749-0.575-1.016
		c-0.385-0.269-1.043-0.559-1.977-0.873c-0.408-0.145-0.815-0.309-1.222-0.495c-0.408-0.183-0.772-0.418-1.096-0.698
		c-0.324-0.281-0.588-0.622-0.791-1.026c-0.204-0.398-0.305-0.887-0.305-1.463c0-0.574,0.107-1.093,0.323-1.554
		c0.217-0.462,0.522-0.854,0.917-1.179c0.395-0.323,0.874-0.568,1.436-0.745c0.563-0.173,1.199-0.258,1.905-0.258
		c0.838,0,1.563,0.089,2.173,0.268c0.611,0.181,1.115,0.379,1.51,0.593l-0.81,2.212c-0.347-0.181-0.733-0.338-1.159-0.479
		c-0.424-0.137-0.937-0.203-1.536-0.203c-0.67,0-1.153,0.092-1.446,0.276c-0.293,0.188-0.44,0.471-0.44,0.854
		c0,0.226,0.054,0.419,0.162,0.574c0.109,0.155,0.261,0.297,0.459,0.422c0.197,0.126,0.424,0.24,0.683,0.342
		c0.256,0.103,0.541,0.206,0.854,0.313c0.646,0.242,1.209,0.476,1.688,0.711c0.479,0.234,0.877,0.507,1.194,0.817
		c0.319,0.312,0.555,0.678,0.71,1.096c0.155,0.417,0.234,0.928,0.234,1.528c0,1.16-0.407,2.063-1.221,2.704
		c-0.815,0.642-2.044,0.962-3.683,0.962c-0.551,0-1.049-0.033-1.492-0.103c-0.443-0.063-0.834-0.146-1.177-0.239
		c-0.341-0.1-0.634-0.199-0.879-0.307c-0.245-0.109-0.453-0.21-0.62-0.305l0.791-2.227c0.37,0.2,0.829,0.384,1.373,0.546
		C93.46,144.02,94.126,144.102,94.918,144.102z"/>
	<path fill="#FFFFFF" d="M105.521,146.238c-0.496-1.044-0.983-2.129-1.467-3.256c-0.484-1.123-0.94-2.237-1.375-3.338
		c-0.433-1.102-0.831-2.154-1.195-3.162c-0.363-1.006-0.679-1.903-0.941-2.694h3.089c0.231,0.721,0.491,1.499,0.776,2.329
		c0.285,0.829,0.578,1.66,0.871,2.484c0.297,0.826,0.58,1.616,0.852,2.373c0.271,0.756,0.531,1.41,0.778,1.958
		c0.236-0.545,0.492-1.198,0.77-1.952c0.277-0.757,0.564-1.547,0.861-2.373c0.295-0.824,0.584-1.653,0.869-2.484
		c0.287-0.834,0.546-1.611,0.78-2.335h2.98c-0.276,0.794-0.598,1.694-0.961,2.698c-0.362,1.004-0.759,2.059-1.191,3.16
		c-0.431,1.101-0.885,2.217-1.365,3.342c-0.479,1.127-0.963,2.209-1.459,3.25H105.521z"/>
	<path fill="#FFFFFF" d="M118.399,130.519l-2.957,2.497l-1.229-1.094l2.542-2.91L118.399,130.519z M114.768,133.788h2.805v12.45
		h-2.805V133.788z"/>
	<path fill="#FFFFFF" d="M132.304,140.003c0,1.069-0.157,2.006-0.476,2.815c-0.316,0.808-0.753,1.481-1.302,2.028
		c-0.555,0.545-1.209,0.954-1.969,1.229c-0.759,0.278-1.579,0.416-2.45,0.416c-0.851,0-1.655-0.138-2.406-0.416
		c-0.757-0.275-1.416-0.685-1.979-1.229c-0.564-0.547-1.007-1.221-1.331-2.028c-0.322-0.81-0.485-1.746-0.485-2.815
		c0-1.063,0.169-2,0.505-2.809c0.335-0.811,0.787-1.489,1.357-2.041c0.565-0.55,1.227-0.966,1.974-1.239
		c0.751-0.274,1.538-0.412,2.365-0.412c0.848,0,1.65,0.138,2.407,0.412c0.755,0.273,1.412,0.689,1.975,1.239
		c0.563,0.552,1.006,1.23,1.329,2.041C132.143,138.003,132.304,138.939,132.304,140.003z M122.801,140.003
		c0,0.61,0.076,1.164,0.224,1.655c0.149,0.491,0.364,0.912,0.649,1.266c0.279,0.355,0.623,0.626,1.03,0.818
		c0.409,0.191,0.875,0.287,1.403,0.287c0.512,0,0.978-0.096,1.391-0.287c0.411-0.192,0.761-0.463,1.04-0.818
		c0.283-0.354,0.498-0.774,0.649-1.266c0.149-0.491,0.224-1.045,0.224-1.655c0-0.608-0.074-1.164-0.224-1.662
		c-0.151-0.495-0.366-0.92-0.649-1.275c-0.279-0.351-0.629-0.626-1.04-0.815c-0.413-0.19-0.879-0.289-1.391-0.289
		c-0.528,0-0.994,0.101-1.403,0.297c-0.407,0.197-0.751,0.476-1.03,0.826c-0.285,0.354-0.5,0.781-0.649,1.276
		C122.877,138.856,122.801,139.406,122.801,140.003z"/>
</g>
<g enable-background="new    ">
	<path fill="#FFFFFF" d="M63.072,155.343v2.39h-3.754v10.062h-2.804v-10.062h-3.754v-2.39H63.072z"/>
	<path fill="#FFFFFF" d="M64.868,167.794v-12.451h8.408v2.355h-5.605v2.442h4.977v2.301h-4.977v2.997h6.019v2.355H64.868z"/>
	<path fill="#FFFFFF" d="M79.062,155.343c0.216,0.396,0.465,0.885,0.748,1.466c0.282,0.581,0.576,1.21,0.882,1.886
		c0.306,0.676,0.609,1.368,0.909,2.078c0.3,0.703,0.583,1.369,0.847,1.991c0.265-0.622,0.546-1.288,0.847-1.991
		c0.3-0.71,0.603-1.402,0.91-2.078s0.601-1.305,0.884-1.886c0.281-0.581,0.53-1.069,0.747-1.466h2.551
		c0.12,0.826,0.229,1.752,0.333,2.778c0.102,1.023,0.191,2.089,0.269,3.197c0.078,1.106,0.15,2.217,0.216,3.331
		c0.065,1.113,0.124,2.163,0.171,3.145h-2.73c-0.036-1.21-0.085-2.525-0.145-3.953c-0.06-1.426-0.149-2.861-0.27-4.312
		c-0.217,0.504-0.457,1.062-0.72,1.672c-0.265,0.61-0.526,1.221-0.784,1.831c-0.258,0.614-0.508,1.197-0.749,1.755
		c-0.239,0.556-0.444,1.031-0.613,1.429h-1.958c-0.169-0.397-0.372-0.873-0.612-1.429c-0.241-0.558-0.49-1.141-0.749-1.755
		c-0.258-0.61-0.52-1.221-0.783-1.831c-0.265-0.61-0.505-1.168-0.721-1.672c-0.12,1.45-0.21,2.886-0.271,4.312
		c-0.059,1.428-0.107,2.743-0.143,3.953h-2.731c0.049-0.981,0.105-2.031,0.171-3.145c0.065-1.114,0.137-2.225,0.215-3.331
		c0.078-1.108,0.168-2.174,0.27-3.197c0.103-1.026,0.213-1.952,0.333-2.778H79.062z"/>
	<path fill="#FFFFFF" d="M95.606,155.2c1.858,0,3.284,0.326,4.277,0.978c0.996,0.654,1.492,1.722,1.492,3.208
		c0,1.498-0.502,2.577-1.509,3.244c-1.008,0.665-2.444,0.997-4.311,0.997h-0.882v4.167h-2.801v-12.271
		c0.61-0.118,1.257-0.201,1.94-0.251C94.493,155.225,95.093,155.2,95.606,155.2z M95.786,157.589c-0.201,0-0.403,0.005-0.601,0.017
		c-0.198,0.014-0.369,0.025-0.513,0.038v3.595h0.882c0.97,0,1.699-0.136,2.19-0.397c0.491-0.262,0.739-0.753,0.739-1.474
		c0-0.348-0.065-0.634-0.189-0.86c-0.125-0.229-0.306-0.411-0.541-0.55c-0.23-0.136-0.518-0.23-0.854-0.286
		C96.563,157.615,96.195,157.589,95.786,157.589z"/>
	<path fill="#FFFFFF" d="M115.297,161.563c0,1.063-0.159,2.001-0.478,2.809c-0.316,0.809-0.749,1.487-1.302,2.029
		c-0.549,0.547-1.205,0.959-1.965,1.232c-0.763,0.275-1.581,0.413-2.454,0.413c-0.851,0-1.651-0.138-2.406-0.413
		c-0.755-0.273-1.414-0.686-1.979-1.232c-0.561-0.542-1.003-1.221-1.327-2.029c-0.322-0.808-0.485-1.745-0.485-2.809
		c0-1.068,0.169-2.005,0.505-2.813c0.333-0.81,0.787-1.489,1.354-2.039c0.568-0.553,1.227-0.964,1.978-1.238
		c0.749-0.278,1.536-0.416,2.361-0.416c0.852,0,1.654,0.138,2.409,0.416c0.753,0.274,1.412,0.686,1.977,1.238
		c0.563,0.55,1.005,1.229,1.327,2.039C115.136,159.558,115.297,160.494,115.297,161.563z M105.796,161.563
		c0,0.61,0.072,1.158,0.222,1.65c0.149,0.49,0.366,0.914,0.647,1.267c0.281,0.354,0.625,0.629,1.034,0.817
		c0.405,0.191,0.873,0.289,1.399,0.289c0.516,0,0.979-0.098,1.391-0.289c0.417-0.188,0.765-0.464,1.046-0.817
		c0.281-0.353,0.498-0.776,0.647-1.267c0.147-0.492,0.222-1.04,0.222-1.65c0-0.615-0.074-1.166-0.222-1.663
		c-0.149-0.498-0.366-0.922-0.647-1.276s-0.629-0.625-1.046-0.817c-0.411-0.193-0.875-0.287-1.391-0.287
		c-0.526,0-0.994,0.097-1.399,0.297c-0.409,0.197-0.753,0.473-1.034,0.825c-0.281,0.355-0.498,0.778-0.647,1.275
		C105.868,160.414,105.796,160.961,105.796,161.563z"/>
	<path fill="#FFFFFF" d="M121.28,155.2c1.866,0,3.298,0.332,4.293,0.997s1.492,1.696,1.492,3.1c0,0.873-0.2,1.584-0.602,2.127
		c-0.401,0.545-0.979,0.974-1.732,1.284c0.25,0.316,0.514,0.669,0.788,1.072c0.277,0.4,0.549,0.819,0.82,1.256
		c0.268,0.436,0.527,0.892,0.78,1.364c0.25,0.477,0.484,0.939,0.7,1.394h-3.136c-0.227-0.406-0.456-0.819-0.692-1.24
		c-0.234-0.418-0.476-0.824-0.72-1.222c-0.248-0.394-0.489-0.768-0.731-1.122c-0.242-0.354-0.483-0.675-0.72-0.962h-1.387v4.546
		h-2.802v-12.271c0.611-0.118,1.243-0.201,1.896-0.251C120.182,155.225,120.766,155.2,121.28,155.2z M121.443,157.589
		c-0.206,0-0.389,0.005-0.55,0.017c-0.162,0.014-0.315,0.025-0.459,0.038v3.379h0.791c1.056,0,1.809-0.132,2.263-0.398
		c0.457-0.262,0.685-0.71,0.685-1.345c0-0.61-0.231-1.047-0.692-1.303C123.019,157.72,122.339,157.589,121.443,157.589z"/>
	<path fill="#FFFFFF" d="M138.525,167.794c-0.138-0.433-0.287-0.878-0.444-1.333c-0.159-0.453-0.32-0.908-0.476-1.359h-4.865
		c-0.155,0.451-0.313,0.909-0.474,1.363c-0.157,0.457-0.305,0.9-0.44,1.329h-2.908c0.466-1.341,0.912-2.58,1.333-3.719
		c0.419-1.138,0.83-2.208,1.232-3.216c0.403-1.007,0.799-1.961,1.19-2.865c0.391-0.902,0.796-1.788,1.217-2.651h2.656
		c0.407,0.863,0.814,1.749,1.21,2.651c0.396,0.904,0.798,1.858,1.199,2.865c0.403,1.008,0.813,2.078,1.236,3.216
		c0.421,1.139,0.867,2.378,1.335,3.719H138.525z M135.161,158.166c-0.065,0.179-0.155,0.427-0.275,0.738
		c-0.122,0.311-0.26,0.671-0.411,1.076c-0.153,0.409-0.328,0.858-0.518,1.35c-0.188,0.49-0.383,1.004-0.58,1.54h3.563
		c-0.192-0.536-0.378-1.056-0.557-1.546c-0.177-0.491-0.348-0.94-0.505-1.35c-0.163-0.408-0.303-0.769-0.427-1.08
		C135.332,158.587,135.233,158.343,135.161,158.166z"/>
	<path fill="#FFFFFF" d="M151.444,165.388v2.406h-8.316v-12.451h2.801v10.045H151.444z"/>
</g>
<g>
	<path fill="#A21B17" d="M130.352,70.996c1.285,0,2.489-0.5,3.399-1.407c0.91-0.908,1.406-2.114,1.406-3.398
		s-0.496-2.49-1.406-3.398l-4.757-4.756c-0.908-0.908-2.113-1.407-3.399-1.407c-1.284,0-2.487,0.499-3.397,1.407
		c-1.721,1.723-1.858,4.438-0.417,6.321l-1.131,1.059c-4.043-3.23-8.886-5.499-14.18-6.452v-2.418
		c3.808-0.142,6.861-3.282,6.861-7.125c0-3.931-3.197-7.13-7.13-7.13H95.424c-3.931,0-7.128,3.199-7.128,7.13
		c0,3.84,3.054,6.98,6.86,7.125v2.418c-5.34,0.962-10.222,3.262-14.287,6.538l-0.975-1.011c1.558-1.887,1.455-4.689-0.309-6.454
		c-0.908-0.907-2.115-1.407-3.399-1.407c-1.283,0-2.489,0.5-3.397,1.407l-4.756,4.757c-0.909,0.908-1.408,2.114-1.408,3.398
		c0,1.284,0.5,2.49,1.408,3.396c0.908,0.909,2.115,1.407,3.398,1.407c1.084,0,2.115-0.359,2.958-1.018l1.063,1.103
		c-4.061,5.343-6.471,12.003-6.471,19.216c0,17.553,14.281,31.835,31.833,31.835c17.553,0,31.836-14.282,31.836-31.835
		c0-7.262-2.449-13.964-6.556-19.327l1.17-1.097C128.127,70.599,129.209,70.996,130.352,70.996L130.352,70.996z M126.984,90.294
		c0,14.432-11.74,26.172-26.173,26.172s-26.172-11.74-26.172-26.172c0-14.432,11.741-26.174,26.172-26.174
		C115.246,64.12,126.984,75.862,126.984,90.294L126.984,90.294z"/>
	<path fill="#A21B17" d="M100.813,70.111c-11.128,0-20.182,9.054-20.182,20.183c0,11.127,9.054,20.183,20.182,20.183
		c11.131,0,20.182-9.056,20.182-20.183C120.995,79.165,111.944,70.111,100.813,70.111L100.813,70.111z M111.535,84.664l-6.664,5.837
		c-0.051,0.973-0.442,1.926-1.182,2.669c-1.591,1.589-4.166,1.589-5.754,0c-1.588-1.589-1.588-4.164,0-5.753
		c0.879-0.88,2.059-1.27,3.206-1.177l6.666-5.833c1.174-1.031,2.961-0.914,3.993,0.265
		C112.831,81.846,112.713,83.634,111.535,84.664L111.535,84.664z"/>
</g>
</svg>
