<?xml version="1.0" encoding="utf-8"?>
<!-- Generator: Adobe Illustrator 16.0.0, SVG Export Plug-In . SVG Version: 6.00 Build 0)  -->
<!DOCTYPE svg PUBLIC "-//W3C//DTD SVG 1.1//EN" "http://www.w3.org/Graphics/SVG/1.1/DTD/svg11.dtd">
<svg version="1.1" id="Capa_1" xmlns="http://www.w3.org/2000/svg" xmlns:xlink="http://www.w3.org/1999/xlink" x="0px" y="0px"
	 width="200px" height="200px" viewBox="0 0 200 200" enable-background="new 0 0 200 200" xml:space="preserve">
<g>
	<path fill="#E5B92E" d="M190.693,20.78c0,0-3.614,129.899-90.019,178.708c0,0-0.478-200.582-0.081-198.496
		C137.6,66.167,190.693,20.78,190.693,20.78"/>
	<path fill="#FFFFFF" d="M185.13,33.36c0,0-6.87,115.525-84.957,159.524c0,0,0.187-180.541,0.546-178.663
		c41.471,51.65,84.411,16.517,84.411,16.517"/>
	<path fill="#E5B92E" d="M182.358,38.375c0,0-11.36,108.792-81.546,150.107c0,0-0.313-169.25,0.01-167.483
		C139.271,66.168,182.358,38.375,182.358,38.375"/>
	<path fill="#FFDE5E" d="M10.577,20.781c0,0,52.845,45.389,90.017-19.79c0.398-2.084,0.409,198.505,0.409,198.505
		C14.205,150.685,10.577,20.781,10.577,20.781"/>
	<path fill="#FFFFFF" d="M15.768,30.441c2.021,1.647,41.458,37.948,84.951-16.219c0.357-1.878,0.007,178.368,0.007,178.368
		C22.636,148.587,15.768,33.062,15.768,33.062"/>
	<path fill="#FFDE5E" d="M20.74,40.207c0,0,39.701,28.357,80.082-19.208c0.32-1.766,0.117,166.611,0.117,166.611
		C30.752,146.295,20.74,40.207,20.74,40.207"/>
</g>
<g>
	<g>
		<polygon fill="#B54824" points="197.33,181.621 154.478,181.621 154.478,143.487 197.33,143.487 184.928,162.554 		"/>
		<polygon fill="#B54824" points="3.789,181.621 46.637,181.621 46.637,143.487 3.789,143.487 16.188,162.554 		"/>
	</g>
</g>
<path fill="#FFDE5F" d="M100.675,199.487"/>
<path fill="#FFDE5F" d="M188.127,21.529"/>
<rect x="35.277" y="130.097" fill="#EC6633" width="129.624" height="38.136"/>
<path fill="#B54824" d="M119.776,124.807c0.833,0,1.507-0.254,1.507-0.568v-6.272c0-0.312-0.674-0.567-1.507-0.567h-1.599v-9.638
	c0-0.78-0.579-1.411-1.294-1.411H83.089c-0.717,0-1.294,0.631-1.294,1.411v9.638h-1.394c-0.83,0-1.507,0.256-1.507,0.567v6.272
	c0,0.314,0.677,0.568,1.507,0.568"/>
<circle fill="#B54824" cx="98.972" cy="50.444" r="6.682"/>
<path fill="#B54824" d="M103.041,105.604c1.406,0,2.545-1.139,2.545-2.546V81.839c0-0.173-0.018-0.342-0.049-0.504l0.02-8.665
	c-1.301-0.829-2.573-1.717-3.818-2.583c-0.723-0.505-1.465-1.022-2.206-1.522c-0.739,0.5-1.482,1.017-2.207,1.522
	c-1.258,0.88-2.548,1.777-3.865,2.617l-0.016,8.632c-0.033,0.162-0.052,0.329-0.052,0.504v21.219c0,1.405,1.139,2.546,2.548,2.546
	c1.407,0,2.546-1.139,2.546-2.546V85.583h1.005h1.005v17.474C100.493,104.465,101.632,105.604,103.041,105.604z"/>
<path fill="#B54824" d="M87.154,72.138c0.391,1.223,1.348,1.684,2.392,1.684c0.781,0,1.611-0.26,2.279-0.652
	c0.552-0.322,1.093-0.662,1.636-1.01c1.918-1.237,3.786-2.593,5.669-3.873c-0.846-0.592-1.186-1.572-0.88-2.575
	c0.146-0.487,0.428-0.899,0.783-1.194c-0.093-0.02-0.188-0.03-0.285-0.03c-0.3,0-0.621,0.094-0.947,0.312
	c-1.419,0.95-2.84,1.902-4.262,2.852c-0.023,0.015-0.049,0.033-0.071,0.048c-0.685,0.459-1.372,0.919-2.057,1.378
	c-0.192,0.13-0.388,0.258-0.579,0.387c0.51-1.979,1.483-3.9,2.643-5.628c0.003-0.005,0.006-0.01,0.009-0.014v0.413v0.423
	c-0.003,0.006-0.006,0.012-0.01,0.018l-0.004,2.474l2.204-1.476l1.874-1.255c0.384-0.258,0.79-0.391,1.202-0.391
	c0.271,0,0.535,0.068,0.782,0.18c0.247-0.112,0.512-0.18,0.781-0.18c0.414,0,0.814,0.132,1.203,0.391l1.84,1.233l2.215,1.479
	l0.003-1.667l0.006,0.001v-0.808v-0.423v-0.413c1.165,1.728,2.142,3.656,2.652,5.641c-0.192-0.13-0.384-0.258-0.574-0.387
	c-0.696-0.466-1.396-0.933-2.092-1.398c-0.012-0.01-0.03-0.019-0.042-0.028c-1.418-0.952-2.837-1.902-4.261-2.853
	c-0.323-0.219-0.647-0.312-0.947-0.312c-0.097,0-0.192,0.01-0.286,0.03c-0.093,0.019-0.182,0.048-0.268,0.083
	c-0.08,0.033-0.157,0.068-0.228,0.115c-1.01,0.618-1.419,2.348-0.107,3.226c0.037,0.025,0.074,0.05,0.107,0.072
	c0.067,0.044,0.134,0.092,0.2,0.137c0.067,0.045,0.135,0.091,0.202,0.135c1.868,1.27,3.716,2.614,5.622,3.843
	c0.555,0.358,1.117,0.708,1.684,1.041c0.668,0.393,1.495,0.653,2.28,0.653c1.04,0,1.998-0.461,2.389-1.685
	c0.688-2.157-0.458-4.729-1.334-6.683c-1.04-2.317-2.38-4.378-4.009-6.323c-0.298-0.356-0.637-0.532-0.978-0.586
	c-0.003,0-0.006,0-0.009-0.002v-0.023h-0.205h-0.859h-0.418h-4.004h-0.601h-0.519h-4.006h-0.418h-0.858h-0.206v0.023l0,0
	c-0.343,0.053-0.686,0.229-0.986,0.588c-1.628,1.944-2.97,4.004-4.008,6.323C87.614,67.408,86.464,69.979,87.154,72.138z"/>
<line fill="none" x1="99.69" y1="-2.602" x2="99.69" y2="199.487"/>
<g enable-background="new    ">
	<path fill="#FFFFFF" d="M40.35,156.979v-12.995h8.775v2.457h-5.85v2.548h5.193v2.401h-5.193v3.131h6.281v2.458H40.35z"/>
	<path fill="#FFFFFF" d="M60.429,156.979c-0.837-1.491-1.744-2.958-2.718-4.407c-0.975-1.448-2.013-2.819-3.112-4.107v8.515h-2.888
		v-12.995h2.38c0.413,0.412,0.87,0.919,1.369,1.521c0.5,0.599,1.009,1.239,1.528,1.919c0.519,0.685,1.035,1.389,1.547,2.122
		c0.512,0.729,0.993,1.434,1.443,2.108v-7.67h2.906v12.995H60.429z"/>
	<path fill="#FFFFFF" d="M75.521,143.984v2.494h-3.917v10.501h-2.925v-10.501H64.76v-2.494H75.521z"/>
	<path fill="#FFFFFF" d="M82.478,157.241c-0.913,0-1.7-0.128-2.362-0.385c-0.664-0.256-1.209-0.613-1.642-1.067
		c-0.43-0.458-0.749-1.001-0.955-1.633c-0.207-0.632-0.31-1.328-0.31-2.091v-8.081h2.925v7.837c0,0.524,0.06,0.974,0.178,1.341
		c0.119,0.368,0.281,0.671,0.486,0.899c0.207,0.231,0.457,0.397,0.751,0.497c0.293,0.101,0.615,0.149,0.966,0.149
		c0.713,0,1.29-0.216,1.734-0.655c0.444-0.438,0.667-1.181,0.667-2.231v-7.837h2.923v8.081c0,0.763-0.105,1.462-0.317,2.1
		c-0.214,0.638-0.539,1.184-0.975,1.642c-0.438,0.454-0.995,0.809-1.669,1.059C84.204,157.116,83.402,157.241,82.478,157.241z"/>
	<path fill="#FFFFFF" d="M94.194,154.748c0.414,0,0.754-0.037,1.022-0.104c0.269-0.07,0.485-0.161,0.646-0.28
		c0.162-0.119,0.275-0.261,0.338-0.424c0.063-0.162,0.094-0.342,0.094-0.543c0-0.425-0.199-0.778-0.599-1.06
		c-0.401-0.28-1.088-0.581-2.063-0.908c-0.425-0.15-0.85-0.32-1.275-0.517c-0.424-0.192-0.805-0.436-1.143-0.729
		c-0.339-0.297-0.613-0.65-0.825-1.071c-0.212-0.419-0.319-0.929-0.319-1.526c0-0.602,0.112-1.142,0.337-1.623
		c0.226-0.479,0.544-0.891,0.957-1.228c0.412-0.339,0.913-0.598,1.5-0.777c0.587-0.184,1.25-0.271,1.988-0.271
		c0.875,0,1.632,0.091,2.267,0.279c0.638,0.187,1.163,0.395,1.578,0.619l-0.846,2.305c-0.363-0.186-0.766-0.351-1.208-0.497
		c-0.445-0.144-0.979-0.214-1.604-0.214c-0.699,0-1.202,0.098-1.509,0.29c-0.307,0.194-0.459,0.49-0.459,0.892
		c0,0.236,0.057,0.436,0.17,0.597c0.113,0.166,0.272,0.313,0.477,0.442c0.207,0.131,0.444,0.251,0.713,0.358
		c0.269,0.103,0.565,0.213,0.891,0.326c0.675,0.249,1.261,0.497,1.762,0.741s0.916,0.528,1.248,0.852
		c0.33,0.326,0.577,0.707,0.738,1.144c0.165,0.439,0.244,0.971,0.244,1.594c0,1.214-0.424,2.153-1.272,2.822
		c-0.852,0.668-2.132,1.004-3.846,1.004c-0.573,0-1.092-0.037-1.555-0.104c-0.463-0.07-0.873-0.152-1.228-0.254
		c-0.358-0.101-0.665-0.208-0.919-0.317c-0.256-0.113-0.473-0.219-0.646-0.32l0.824-2.325c0.387,0.215,0.865,0.403,1.434,0.574
		C92.673,154.662,93.371,154.748,94.194,154.748z"/>
	<path fill="#FFFFFF" d="M101.564,143.984h2.923v12.995h-2.923V143.984z"/>
	<path fill="#FFFFFF" d="M116.206,156.979c-0.146-0.452-0.304-0.915-0.467-1.393c-0.168-0.476-0.333-0.949-0.498-1.422h-5.074
		c-0.165,0.473-0.33,0.949-0.495,1.426c-0.163,0.477-0.317,0.939-0.458,1.389h-3.039c0.489-1.401,0.953-2.695,1.392-3.883
		c0.439-1.187,0.87-2.306,1.288-3.355c0.421-1.051,0.837-2.046,1.241-2.991c0.41-0.943,0.831-1.864,1.27-2.766h2.774
		c0.428,0.901,0.845,1.822,1.261,2.766c0.414,0.945,0.832,1.94,1.254,2.991c0.421,1.05,0.851,2.169,1.291,3.355
		c0.439,1.188,0.904,2.481,1.392,3.883H116.206z M112.689,146.93c-0.063,0.187-0.157,0.446-0.286,0.769
		c-0.125,0.324-0.27,0.699-0.427,1.127c-0.162,0.424-0.342,0.894-0.54,1.406c-0.198,0.51-0.401,1.047-0.604,1.608h3.718
		c-0.203-0.562-0.396-1.102-0.581-1.614s-0.363-0.982-0.531-1.409c-0.167-0.426-0.315-0.8-0.438-1.124
		C112.87,147.367,112.769,147.112,112.689,146.93z"/>
	<path fill="#FFFFFF" d="M124.906,154.748c0.411,0,0.753-0.037,1.021-0.104c0.269-0.07,0.485-0.161,0.647-0.28
		s0.273-0.261,0.336-0.424c0.063-0.162,0.094-0.342,0.094-0.543c0-0.425-0.198-0.778-0.598-1.06c-0.403-0.28-1.09-0.581-2.062-0.908
		c-0.429-0.15-0.854-0.32-1.277-0.517c-0.424-0.192-0.806-0.436-1.145-0.729c-0.339-0.297-0.614-0.65-0.823-1.071
		c-0.213-0.419-0.32-0.929-0.32-1.526c0-0.602,0.113-1.142,0.338-1.623c0.227-0.479,0.544-0.891,0.956-1.228
		c0.411-0.339,0.912-0.598,1.501-0.777c0.586-0.184,1.248-0.271,1.986-0.271c0.876,0,1.633,0.091,2.269,0.279
		c0.638,0.187,1.161,0.395,1.577,0.619l-0.846,2.305c-0.363-0.186-0.767-0.351-1.208-0.497c-0.446-0.144-0.979-0.214-1.605-0.214
		c-0.699,0-1.202,0.098-1.508,0.29c-0.308,0.194-0.462,0.49-0.462,0.892c0,0.236,0.059,0.436,0.172,0.597
		c0.112,0.166,0.272,0.313,0.476,0.442c0.208,0.131,0.446,0.251,0.715,0.358c0.269,0.103,0.563,0.213,0.891,0.326
		c0.674,0.249,1.261,0.497,1.761,0.741c0.501,0.244,0.915,0.528,1.248,0.852c0.329,0.326,0.577,0.707,0.739,1.144
		c0.165,0.439,0.244,0.971,0.244,1.594c0,1.214-0.425,2.153-1.272,2.822c-0.852,0.668-2.134,1.004-3.845,1.004
		c-0.575,0-1.093-0.037-1.558-0.104c-0.463-0.07-0.872-0.152-1.227-0.254c-0.357-0.101-0.665-0.208-0.918-0.317
		c-0.257-0.113-0.473-0.219-0.647-0.32l0.824-2.325c0.388,0.215,0.863,0.403,1.435,0.574
		C123.383,154.662,124.082,154.748,124.906,154.748z"/>
	<path fill="#FFFFFF" d="M135.724,143.984c0.225,0.412,0.485,0.922,0.778,1.53c0.294,0.604,0.604,1.259,0.92,1.968
		c0.321,0.704,0.638,1.429,0.95,2.163c0.313,0.739,0.607,1.434,0.885,2.08c0.275-0.646,0.571-1.341,0.882-2.08
		c0.314-0.734,0.632-1.459,0.949-2.163c0.32-0.709,0.629-1.364,0.921-1.968c0.296-0.608,0.556-1.118,0.781-1.53h2.665
		c0.121,0.864,0.238,1.828,0.344,2.896c0.107,1.068,0.202,2.183,0.282,3.339c0.082,1.156,0.154,2.316,0.226,3.479
		c0.069,1.158,0.128,2.254,0.176,3.28h-2.847c-0.04-1.264-0.089-2.637-0.153-4.126c-0.061-1.487-0.154-2.987-0.28-4.498
		c-0.225,0.523-0.477,1.104-0.751,1.742c-0.278,0.638-0.548,1.274-0.817,1.912c-0.271,0.635-0.531,1.246-0.781,1.829
		c-0.249,0.579-0.463,1.077-0.641,1.489h-2.042c-0.178-0.412-0.391-0.91-0.641-1.489c-0.25-0.583-0.513-1.194-0.78-1.829
		c-0.27-0.638-0.543-1.274-0.818-1.912c-0.274-0.638-0.525-1.219-0.751-1.742c-0.126,1.511-0.22,3.011-0.283,4.498
		c-0.062,1.489-0.109,2.862-0.15,4.126h-2.85c0.053-1.026,0.109-2.122,0.18-3.28c0.067-1.163,0.145-2.323,0.224-3.479
		c0.081-1.156,0.176-2.271,0.283-3.339c0.104-1.068,0.22-2.032,0.345-2.896H135.724z"/>
	<path fill="#FFFFFF" d="M161.462,150.474c0,1.11-0.164,2.089-0.498,2.932c-0.329,0.846-0.782,1.551-1.356,2.122
		c-0.575,0.566-1.261,0.994-2.055,1.281c-0.792,0.288-1.644,0.433-2.557,0.433c-0.888,0-1.727-0.145-2.514-0.433
		c-0.787-0.287-1.475-0.715-2.063-1.281c-0.587-0.571-1.05-1.276-1.386-2.122c-0.339-0.843-0.507-1.821-0.507-2.932
		c0-1.115,0.174-2.092,0.524-2.937c0.351-0.842,0.821-1.553,1.417-2.127c0.592-0.574,1.281-1.008,2.062-1.294
		c0.782-0.287,1.603-0.429,2.466-0.429c0.886,0,1.724,0.142,2.513,0.429c0.786,0.286,1.473,0.72,2.062,1.294
		c0.586,0.574,1.05,1.285,1.385,2.127C161.295,148.382,161.462,149.358,161.462,150.474z M151.545,150.474
		c0,0.638,0.079,1.211,0.234,1.723c0.157,0.513,0.383,0.953,0.676,1.322c0.292,0.368,0.652,0.652,1.076,0.854
		c0.429,0.198,0.913,0.3,1.465,0.3c0.537,0,1.02-0.102,1.453-0.3c0.431-0.201,0.793-0.485,1.086-0.854
		c0.293-0.369,0.519-0.81,0.674-1.322c0.156-0.512,0.235-1.085,0.235-1.723c0-0.639-0.079-1.219-0.235-1.736
		c-0.155-0.517-0.381-0.962-0.674-1.332c-0.293-0.368-0.655-0.652-1.086-0.851c-0.434-0.202-0.916-0.301-1.453-0.301
		c-0.552,0-1.036,0.102-1.465,0.31c-0.424,0.204-0.784,0.494-1.076,0.86c-0.293,0.37-0.519,0.814-0.676,1.335
		C151.624,149.277,151.545,149.848,151.545,150.474z"/>
</g>
</svg>
