<?xml version="1.0" encoding="utf-8"?>
<!-- Generator: Adobe Illustrator 16.0.0, SVG Export Plug-In . SVG Version: 6.00 Build 0)  -->
<!DOCTYPE svg PUBLIC "-//W3C//DTD SVG 1.1//EN" "http://www.w3.org/Graphics/SVG/1.1/DTD/svg11.dtd">
<svg version="1.1" id="Capa_1" xmlns="http://www.w3.org/2000/svg" xmlns:xlink="http://www.w3.org/1999/xlink" x="0px" y="0px"
	 width="200px" height="200px" viewBox="0 0 200 200" enable-background="new 0 0 200 200" xml:space="preserve">
<g>
	<path fill="#E5B92E" d="M190.646,20.268c0,0-3.616,130.102-90.156,178.985c0,0-0.479-200.894-0.082-198.805
		C137.47,65.726,190.646,20.268,190.646,20.268"/>
	<path fill="#FFFFFF" d="M185.074,32.868c0,0-6.88,115.707-85.089,159.774c0,0,0.188-180.823,0.546-178.941
		c41.535,51.729,84.543,16.542,84.543,16.542"/>
	<path fill="#E5B92E" d="M182.299,37.891c0,0-11.376,108.959-81.672,150.337c0,0-0.314-169.513,0.008-167.741
		C139.147,65.728,182.299,37.891,182.299,37.891"/>
	<path fill="#FFDE5E" d="M10.251,20.268c0,0,52.926,45.459,90.156-19.821c0.398-2.087,0.411,198.812,0.411,198.812
		C13.883,150.376,10.251,20.268,10.251,20.268"/>
	<path fill="#FFFFFF" d="M15.447,29.943c2.025,1.65,41.522,38.008,85.082-16.243c0.358-1.882,0.009,178.642,0.009,178.642
		C22.329,148.274,15.447,32.568,15.447,32.568"/>
	<path fill="#FFDE5E" d="M20.429,39.725c0,0,39.766,28.401,80.206-19.238c0.323-1.769,0.119,166.869,0.119,166.869
		C30.458,145.978,20.429,39.725,20.429,39.725"/>
</g>
<g>
	<polygon fill="#076751" points="197.25,181.034 154.334,181.034 154.334,142.841 197.25,142.841 184.828,161.936 	"/>
	<polygon fill="#076751" points="3.409,181.034 46.325,181.034 46.325,142.841 3.409,142.841 15.827,161.936 	"/>
</g>
<path fill="#FFDE5F" d="M102.448,198.93"/>
<path fill="#FFDE5F" d="M190.717,20.331"/>
<rect x="34.946" y="129.432" fill="#059A7B" width="129.829" height="38.194"/>
<g enable-background="new    ">
	<path fill="#FFFFFF" d="M39.366,155.356v-13.014h8.789v2.46h-5.859v2.552h5.201v2.405h-5.201v3.135h6.29v2.462H39.366z"/>
	<path fill="#FFFFFF" d="M58.601,155.356c-0.367-0.725-0.768-1.462-1.203-2.204c-0.436-0.743-0.936-1.373-1.5-1.887
		c-0.176,0.196-0.397,0.464-0.666,0.807c-0.27,0.346-0.538,0.712-0.806,1.1c-0.27,0.387-0.521,0.79-0.755,1.206
		s-0.409,0.739-0.523,0.979h-3.341c0.546-1.02,1.193-2.068,1.939-3.148c0.745-1.082,1.576-2.231,2.494-3.447l-4.246-6.418h3.548
		l2.48,3.768l2.534-3.768h3.343l-4.224,6.279c1.108,1.39,2.02,2.66,2.735,3.814c0.716,1.158,1.281,2.131,1.695,2.92H58.601z"/>
	<path fill="#FFFFFF" d="M67.701,142.193c1.939,0,3.43,0.338,4.469,1.022c1.04,0.683,1.559,1.801,1.559,3.35
		c0,1.565-0.526,2.697-1.578,3.39c-1.051,0.696-2.554,1.043-4.506,1.043h-0.919v4.358h-2.929v-12.828
		c0.639-0.121,1.314-0.211,2.028-0.263C66.536,142.218,67.162,142.193,67.701,142.193z M67.889,144.69
		c-0.213,0-0.423,0.006-0.63,0.018c-0.206,0.014-0.384,0.024-0.534,0.036v3.757h0.919c1.014,0,1.778-0.139,2.291-0.412
		c0.513-0.275,0.77-0.789,0.77-1.542c0-0.363-0.065-0.661-0.197-0.901c-0.132-0.234-0.32-0.427-0.563-0.571
		c-0.244-0.143-0.542-0.243-0.893-0.299C68.701,144.717,68.313,144.69,67.889,144.69z"/>
	<path fill="#FFFFFF" d="M75.887,155.356v-13.014h8.79v2.46h-5.859v2.552h5.202v2.405h-5.202v3.135h6.29v2.462H75.887z"/>
	<path fill="#FFFFFF" d="M91.079,142.193c1.952,0,3.448,0.344,4.487,1.042c1.04,0.693,1.559,1.771,1.559,3.24
		c0,0.912-0.209,1.652-0.628,2.224c-0.421,0.569-1.024,1.018-1.813,1.342c0.262,0.327,0.537,0.696,0.825,1.118
		c0.289,0.419,0.572,0.856,0.856,1.315c0.281,0.454,0.553,0.931,0.816,1.426c0.263,0.492,0.508,0.979,0.732,1.456h-3.275
		c-0.238-0.426-0.48-0.859-0.727-1.297c-0.244-0.44-0.495-0.865-0.753-1.277c-0.256-0.412-0.511-0.804-0.762-1.175
		c-0.252-0.368-0.504-0.701-0.755-1.005h-1.445v4.754h-2.93v-12.828c0.639-0.121,1.299-0.211,1.98-0.263
		C89.93,142.218,90.54,142.193,91.079,142.193z M91.248,144.69c-0.212,0-0.403,0.006-0.573,0.018
		c-0.168,0.014-0.329,0.024-0.478,0.036v3.53h0.826c1.101,0,1.891-0.138,2.365-0.413c0.476-0.275,0.714-0.742,0.714-1.408
		c0-0.636-0.242-1.09-0.723-1.359C92.896,144.825,92.186,144.69,91.248,144.69z"/>
	<path fill="#FFFFFF" d="M99.791,142.343h2.929v13.014h-2.929V142.343z"/>
	<path fill="#FFFFFF" d="M105.725,155.356v-13.014h8.789v2.46h-5.857v2.552h5.2v2.405h-5.2v3.135h6.288v2.462H105.725z"/>
	<path fill="#FFFFFF" d="M125.834,155.356c-0.837-1.493-1.744-2.963-2.722-4.414c-0.976-1.451-2.015-2.824-3.118-4.113v8.527h-2.892
		v-13.014h2.388c0.413,0.412,0.866,0.919,1.368,1.521c0.502,0.6,1.012,1.241,1.532,1.922c0.52,0.685,1.036,1.392,1.549,2.124
		c0.514,0.731,0.993,1.438,1.446,2.113v-7.681h2.909v13.014H125.834z"/>
	<path fill="#FFFFFF" d="M137.233,155.618c-2.115,0-3.728-0.591-4.834-1.768c-1.109-1.176-1.663-2.847-1.663-5.011
		c0-1.076,0.169-2.038,0.507-2.883c0.338-0.847,0.802-1.559,1.389-2.142c0.59-0.58,1.29-1.024,2.105-1.322
		c0.813-0.3,1.696-0.45,2.646-0.45c0.551,0,1.053,0.04,1.5,0.122c0.453,0.081,0.848,0.174,1.187,0.281
		c0.337,0.107,0.617,0.215,0.844,0.328c0.226,0.113,0.388,0.201,0.489,0.261l-0.846,2.366c-0.4-0.21-0.866-0.395-1.397-0.544
		c-0.536-0.149-1.138-0.223-1.813-0.223c-0.452,0-0.893,0.073-1.326,0.223c-0.431,0.149-0.813,0.392-1.144,0.724
		c-0.334,0.332-0.6,0.763-0.798,1.288c-0.202,0.524-0.303,1.165-0.303,1.913c0,0.603,0.068,1.161,0.198,1.681
		c0.132,0.52,0.343,0.969,0.639,1.345c0.294,0.372,0.679,0.673,1.156,0.889c0.473,0.22,1.051,0.329,1.728,0.329
		c0.425,0,0.806-0.022,1.145-0.075c0.338-0.05,0.636-0.107,0.899-0.179c0.265-0.069,0.496-0.145,0.697-0.234
		c0.197-0.085,0.382-0.167,0.544-0.245l0.808,2.348c-0.413,0.252-0.995,0.478-1.746,0.677
		C139.093,155.518,138.223,155.618,137.233,155.618z"/>
	<path fill="#FFFFFF" d="M143.469,142.343h2.929v13.014h-2.929V142.343z"/>
	<path fill="#FFFFFF" d="M158.133,155.356c-0.146-0.453-0.303-0.917-0.467-1.395c-0.168-0.478-0.334-0.951-0.498-1.425h-5.083
		c-0.165,0.474-0.33,0.951-0.495,1.428c-0.165,0.478-0.317,0.941-0.458,1.392h-3.044c0.488-1.404,0.952-2.7,1.394-3.89
		c0.438-1.188,0.871-2.311,1.29-3.361c0.422-1.05,0.836-2.047,1.242-2.995c0.41-0.943,0.832-1.866,1.271-2.768h2.778
		c0.428,0.901,0.847,1.824,1.263,2.768c0.416,0.948,0.835,1.945,1.257,2.995c0.421,1.051,0.852,2.174,1.293,3.361
		c0.439,1.189,0.905,2.485,1.393,3.89H158.133z M154.612,145.293c-0.063,0.186-0.159,0.444-0.288,0.768
		c-0.124,0.325-0.269,0.701-0.428,1.128c-0.162,0.426-0.342,0.898-0.54,1.411c-0.199,0.51-0.4,1.048-0.604,1.609h3.722
		c-0.202-0.562-0.395-1.103-0.581-1.615c-0.186-0.515-0.363-0.986-0.531-1.413c-0.168-0.425-0.315-0.801-0.44-1.126
		C154.793,145.729,154.693,145.476,154.612,145.293z"/>
</g>
<g>
	<path fill="#076751" d="M100.393,47.187c1.33,0,2.412-1.08,2.412-2.413V41.26c0-1.332-1.082-2.413-2.412-2.413
		c-1.332,0-2.414,1.08-2.414,2.413v3.513C97.979,46.106,99.061,47.187,100.393,47.187z"/>
	<path fill="#076751" d="M82.833,59.92h-3.514c-1.332,0-2.413,1.079-2.413,2.412c0,1.333,1.08,2.414,2.413,2.414h3.514
		c1.331,0,2.413-1.079,2.413-2.414C85.245,61,84.166,59.92,82.833,59.92z"/>
	<path fill="#076751" d="M121.463,59.92h-3.512c-1.333,0-2.41,1.079-2.41,2.412c0,1.333,1.077,2.414,2.41,2.414h3.512
		c1.335,0,2.414-1.079,2.414-2.414C123.877,61,122.796,59.92,121.463,59.92z"/>
	<path fill="#076751" d="M113.839,51.727c0.618,0,1.233-0.235,1.705-0.707l2.485-2.483c0.939-0.942,0.939-2.471,0-3.412
		c-0.946-0.941-2.47-0.941-3.414,0l-2.482,2.483c-0.945,0.943-0.945,2.469,0,3.412C112.604,51.491,113.222,51.727,113.839,51.727z"
		/>
	<path fill="#076751" d="M85.242,51.02c0.47,0.472,1.088,0.707,1.705,0.707c0.617,0,1.235-0.235,1.705-0.707
		c0.943-0.942,0.943-2.468,0-3.411l-2.483-2.482c-0.942-0.941-2.469-0.941-3.412,0c-0.941,0.942-0.941,2.469,0,3.412L85.242,51.02z"
		/>
	<path fill="#076751" d="M100.393,69.919c4.538,0,8.231-3.692,8.231-8.23c0-4.539-3.691-8.231-8.231-8.231
		c-4.541,0-8.231,3.691-8.231,8.231C92.161,66.227,95.852,69.919,100.393,69.919z"/>
	<path fill="#076751" d="M109.433,73.908l-0.014-0.005l-2.351-0.722c-0.37-0.112-0.703,0.113-0.898,0.448
		c-1.02,1.739-3.49,4.93-4.94,6.38c-0.588,0.59-1.088,0.59-1.676,0c-1.487-1.487-3.965-4.614-4.939-6.38
		c-0.153-0.275-0.387-0.48-0.685-0.48c-0.07,0-2.562,0.752-2.562,0.752c-3,1-5.006,3.782-5.006,6.928v14.338
		c0,0.142,0.041,0.281,0.121,0.4l5.154,7.843v19.85c0,0.401,0.326,0.729,0.729,0.729h16.051c0.402,0,0.73-0.327,0.73-0.729v-19.85
		l5.155-7.843c0.076-0.119,0.119-0.258,0.119-0.4V80.794C114.422,77.661,112.408,74.883,109.433,73.908L109.433,73.908z"/>
</g>
</svg>
