<?xml version="1.0" encoding="utf-8"?>
<!-- Generator: Adobe Illustrator 16.0.0, SVG Export Plug-In . SVG Version: 6.00 Build 0)  -->
<!DOCTYPE svg PUBLIC "-//W3C//DTD SVG 1.1//EN" "http://www.w3.org/Graphics/SVG/1.1/DTD/svg11.dtd">
<svg version="1.1" id="Capa_1" xmlns="http://www.w3.org/2000/svg" xmlns:xlink="http://www.w3.org/1999/xlink" x="0px" y="0px"
	 width="200px" height="200px" viewBox="0 0 200 200" enable-background="new 0 0 200 200" xml:space="preserve">
<g>
	<path fill="#E5B92E" d="M193.127,19.942c0,0-3.635,130.797-90.636,179.942c0,0-0.481-201.966-0.082-199.868
		C139.667,65.643,193.127,19.942,193.127,19.942"/>
	<path fill="#FFFFFF" d="M187.525,32.609c0,0-6.916,116.321-85.543,160.625c0,0,0.189-181.789,0.55-179.896
		c41.756,52.007,84.993,16.631,84.993,16.631"/>
	<path fill="#E5B92E" d="M184.735,37.659c0,0-11.436,109.54-82.104,151.142c0,0-0.317-170.417,0.006-168.64
		C141.354,65.646,184.735,37.659,184.735,37.659"/>
	<path fill="#FFDE5E" d="M11.772,19.943c0,0,53.208,45.702,90.637-19.927c0.399-2.099,0.412,199.875,0.412,199.875
		C15.423,150.745,11.772,19.943,11.772,19.943"/>
	<path fill="#FFFFFF" d="M16.996,29.669c2.036,1.66,41.744,38.21,85.536-16.329c0.359-1.893,0.008,179.594,0.008,179.594
		C23.912,148.631,16.996,32.309,16.996,32.309"/>
	<path fill="#FFDE5E" d="M22.004,39.502c0,0,39.976,28.553,80.633-19.34c0.322-1.777,0.12,167.76,0.12,167.76
		C32.086,146.319,22.004,39.502,22.004,39.502"/>
</g>
<polygon fill="#B55617" points="197.788,181.471 154.643,181.471 154.643,143.073 197.788,143.073 185.301,162.271 "/>
<polygon fill="#B55617" points="2.913,181.471 46.059,181.471 46.059,143.073 2.913,143.073 15.398,162.271 "/>
<path fill="#FFDE5F" d="M100.47,199.462"/>
<path fill="#FFDE5F" d="M188.209,19.91"/>
<rect x="29.899" y="129.595" fill="#F08008" width="141.532" height="38.398"/>
<g>
	<path fill="#F08008" d="M92.703,73.412c-0.335-0.455-0.864-0.724-1.425-0.724c-0.562,0-1.094,0.269-1.425,0.724l-9.408,12.833
		c-0.393,0.539-0.452,1.25-0.151,1.846c0.298,0.595,0.913,0.969,1.576,0.969h3.869v29.81c0,0.976,0.793,1.77,1.77,1.77h7.536
		c0.977,0,1.77-0.789,1.77-1.77V89.06h3.869c0.664,0,1.275-0.374,1.576-0.969c0.301-0.595,0.242-1.307-0.151-1.846L92.703,73.412
		L92.703,73.412z"/>
	<path fill="#F08008" d="M72.89,83.908c-0.332-0.455-0.863-0.722-1.425-0.722s-1.096,0.269-1.429,0.722l-9.402,12.836
		c-0.396,0.538-0.453,1.25-0.151,1.845c0.3,0.593,0.911,0.969,1.578,0.969h3.868v19.315c0,0.978,0.79,1.771,1.77,1.771h7.537
		c0.977,0,1.77-0.793,1.77-1.771V99.556h3.865c0.667,0,1.279-0.374,1.58-0.969s0.243-1.309-0.154-1.845L72.89,83.908z"/>
	<path fill="#F08008" d="M119.735,69.397c4.302,0,7.802-3.5,7.802-7.802c0-4.302-3.5-7.801-7.802-7.801
		c-4.299,0-7.801,3.5-7.801,7.801C111.935,65.897,115.434,69.397,119.735,69.397L119.735,69.397z"/>
	<path fill="#F08008" d="M128.305,73.176l-0.012-0.005l-2.228-0.682c-0.351-0.107-0.726,0.077-0.854,0.424l-4.68,12.846
		c-0.271,0.741-1.318,0.741-1.589,0l-4.686-12.846c-0.098-0.278-0.362-0.454-0.651-0.454c-0.064,0-2.424,0.714-2.424,0.714
		c-2.849,0.947-4.75,3.584-4.75,6.565v13.589c0,0.133,0.039,0.266,0.113,0.379l4.886,7.435v18.81c0,0.383,0.307,0.689,0.691,0.689
		h15.212c0.378,0,0.688-0.309,0.688-0.689v-18.81l4.882-7.435c0.074-0.114,0.11-0.246,0.11-0.379V79.702
		C133.033,76.733,131.126,74.102,128.305,73.176L128.305,73.176z"/>
	<path fill="#F08008" d="M121.772,71.922c-0.218-0.234-0.531-0.353-0.848-0.353h-2.375c-0.316,0-0.634,0.119-0.849,0.353
		c-0.335,0.364-0.381,0.887-0.145,1.298l1.27,1.911l-0.593,5.011l1.167,3.112c0.114,0.313,0.558,0.313,0.673,0l1.168-3.112
		l-0.593-5.011l1.269-1.911C122.15,72.809,122.104,72.286,121.772,71.922L121.772,71.922z"/>
</g>
<g enable-background="new    ">
	<path fill="#FFFFFF" d="M42,142.476h2.945v13.083H42v-5.549h-4.946v5.549h-2.945v-13.083h2.945v5.005H42V142.476z"/>
	<path fill="#FFFFFF" d="M60.424,149.008c0,1.121-0.167,2.104-0.5,2.956c-0.333,0.848-0.79,1.561-1.369,2.132
		c-0.579,0.574-1.268,1.005-2.067,1.294c-0.799,0.288-1.659,0.433-2.577,0.433c-0.894,0-1.737-0.145-2.53-0.433
		c-0.792-0.289-1.485-0.72-2.076-1.294c-0.591-0.571-1.057-1.284-1.397-2.132c-0.339-0.852-0.509-1.835-0.509-2.956
		c0-1.118,0.176-2.104,0.529-2.953c0.352-0.851,0.827-1.563,1.425-2.145c0.598-0.577,1.291-1.011,2.077-1.303
		c0.787-0.289,1.614-0.434,2.482-0.434c0.894,0,1.737,0.145,2.53,0.434c0.792,0.292,1.484,0.726,2.076,1.303
		c0.591,0.581,1.057,1.294,1.397,2.145C60.254,146.903,60.424,147.89,60.424,149.008z M50.438,149.008
		c0,0.642,0.079,1.223,0.236,1.739c0.157,0.516,0.383,0.958,0.679,1.33s0.658,0.657,1.086,0.857
		c0.427,0.202,0.918,0.304,1.473,0.304c0.541,0,1.029-0.102,1.462-0.304c0.434-0.2,0.799-0.485,1.096-0.857
		c0.295-0.372,0.521-0.814,0.679-1.33c0.158-0.517,0.237-1.098,0.237-1.739c0-0.643-0.079-1.223-0.237-1.745
		c-0.157-0.522-0.384-0.968-0.679-1.34c-0.296-0.372-0.662-0.657-1.096-0.86c-0.434-0.2-0.921-0.301-1.462-0.301
		c-0.555,0-1.045,0.104-1.473,0.31c-0.428,0.209-0.79,0.498-1.086,0.87c-0.296,0.371-0.522,0.817-0.679,1.34
		C50.517,147.803,50.438,148.381,50.438,149.008z"/>
	<path fill="#FFFFFF" d="M66.71,142.325c1.963,0,3.467,0.35,4.512,1.047c1.044,0.701,1.566,1.785,1.566,3.258
		c0,0.918-0.211,1.665-0.632,2.236c-0.422,0.574-1.029,1.023-1.822,1.349c0.264,0.329,0.541,0.704,0.83,1.125
		s0.576,0.863,0.86,1.321c0.283,0.461,0.556,0.937,0.82,1.435s0.51,0.986,0.736,1.463H70.29c-0.24-0.428-0.484-0.86-0.729-1.303
		c-0.247-0.439-0.5-0.867-0.758-1.281c-0.259-0.418-0.515-0.812-0.768-1.18c-0.252-0.372-0.505-0.71-0.758-1.012h-1.454v4.775
		h-2.945v-12.893c0.642-0.126,1.306-0.215,1.992-0.265C65.556,142.353,66.169,142.325,66.71,142.325z M66.88,144.835
		c-0.214,0-0.406,0.01-0.576,0.021c-0.17,0.013-0.33,0.024-0.481,0.037v3.549h0.831c1.107,0,1.9-0.139,2.379-0.415
		c0.478-0.276,0.717-0.75,0.717-1.416c0-0.643-0.243-1.098-0.727-1.367C68.539,144.974,67.824,144.835,66.88,144.835z"/>
	<path fill="#FFFFFF" d="M84.832,155.559c-0.146-0.455-0.302-0.922-0.47-1.401c-0.167-0.477-0.333-0.955-0.5-1.429h-5.109
		c-0.166,0.477-0.332,0.956-0.498,1.435c-0.166,0.479-0.319,0.943-0.462,1.396h-3.059c0.492-1.407,0.958-2.71,1.401-3.908
		c0.441-1.195,0.874-2.32,1.297-3.377c0.422-1.057,0.84-2.062,1.25-3.012c0.41-0.952,0.835-1.88,1.278-2.786h2.791
		c0.43,0.906,0.853,1.834,1.271,2.786c0.417,0.95,0.837,1.955,1.261,3.012c0.424,1.057,0.857,2.182,1.3,3.377
		c0.442,1.198,0.91,2.501,1.403,3.908H84.832z M81.294,145.44c-0.066,0.19-0.162,0.448-0.289,0.774
		c-0.126,0.328-0.271,0.706-0.432,1.134c-0.161,0.43-0.343,0.9-0.542,1.416c-0.2,0.517-0.402,1.058-0.608,1.623h3.741
		c-0.202-0.569-0.395-1.109-0.583-1.626c-0.188-0.52-0.366-0.992-0.535-1.419c-0.169-0.431-0.316-0.806-0.444-1.134
		C81.475,145.883,81.372,145.628,81.294,145.44z"/>
	<path fill="#FFFFFF" d="M93.592,153.313c0.416,0,0.759-0.034,1.029-0.104c0.271-0.067,0.488-0.163,0.651-0.283
		c0.163-0.119,0.276-0.261,0.339-0.424s0.095-0.347,0.095-0.547c0-0.427-0.201-0.783-0.604-1.066
		c-0.404-0.285-1.096-0.59-2.077-0.915c-0.429-0.154-0.856-0.326-1.284-0.52c-0.427-0.196-0.812-0.442-1.151-0.737
		c-0.341-0.295-0.618-0.654-0.831-1.075s-0.321-0.935-0.321-1.54c0-0.604,0.114-1.148,0.34-1.631
		c0.227-0.485,0.548-0.897,0.963-1.238c0.415-0.338,0.919-0.6,1.51-0.784c0.592-0.181,1.258-0.273,2.002-0.273
		c0.88,0,1.642,0.096,2.283,0.283c0.642,0.19,1.171,0.396,1.587,0.624l-0.85,2.322c-0.365-0.19-0.771-0.356-1.218-0.501
		c-0.447-0.145-0.984-0.218-1.614-0.218c-0.704,0-1.211,0.099-1.52,0.295c-0.309,0.193-0.462,0.491-0.462,0.895
		c0,0.239,0.057,0.442,0.17,0.604c0.114,0.163,0.273,0.311,0.481,0.442c0.208,0.133,0.447,0.252,0.717,0.36
		c0.271,0.107,0.57,0.218,0.897,0.331c0.679,0.252,1.271,0.498,1.774,0.744c0.502,0.246,0.922,0.531,1.255,0.86
		c0.333,0.325,0.583,0.71,0.745,1.152c0.165,0.439,0.246,0.974,0.246,1.604c0,1.22-0.427,2.166-1.283,2.842
		c-0.857,0.673-2.146,1.008-3.871,1.008c-0.578,0-1.1-0.033-1.565-0.104c-0.467-0.067-0.879-0.153-1.237-0.252
		c-0.359-0.101-0.668-0.209-0.925-0.322c-0.258-0.113-0.477-0.222-0.651-0.319l0.83-2.342c0.39,0.212,0.871,0.406,1.444,0.575
		C92.06,153.227,92.762,153.313,93.592,153.313z"/>
	<path fill="#FFFFFF" d="M105.54,155.559v-13.083h8.837v2.474h-5.891v2.568h5.229v2.415h-5.229v3.152h6.324v2.474H105.54z"/>
	<path fill="#FFFFFF" d="M124.879,155.559c-0.369-0.729-0.771-1.466-1.211-2.213c-0.436-0.749-0.939-1.379-1.508-1.896
		c-0.176,0.193-0.399,0.464-0.67,0.812c-0.271,0.344-0.538,0.713-0.809,1.103c-0.271,0.391-0.525,0.793-0.759,1.211
		c-0.236,0.418-0.412,0.747-0.525,0.983h-3.361c0.55-1.021,1.201-2.074,1.951-3.165c0.75-1.088,1.585-2.24,2.507-3.463l-4.268-6.455
		h3.567l2.492,3.788l2.547-3.788h3.361l-4.246,6.313c1.112,1.396,2.03,2.677,2.75,3.838c0.719,1.161,1.287,2.139,1.705,2.932
		H124.879z"/>
	<path fill="#FFFFFF" d="M140.294,142.476v2.513h-3.945v10.57h-2.943v-10.57h-3.945v-2.513H140.294z"/>
	<path fill="#FFFFFF" d="M146.016,142.325c1.96,0,3.466,0.35,4.51,1.047c1.045,0.701,1.567,1.785,1.567,3.258
		c0,0.918-0.212,1.665-0.633,2.236c-0.421,0.574-1.029,1.023-1.822,1.349c0.265,0.329,0.541,0.704,0.83,1.125
		c0.291,0.421,0.577,0.863,0.86,1.321c0.282,0.461,0.556,0.937,0.82,1.435c0.264,0.498,0.51,0.986,0.737,1.463h-3.294
		c-0.24-0.428-0.482-0.86-0.729-1.303c-0.246-0.439-0.498-0.867-0.759-1.281c-0.258-0.418-0.513-0.812-0.765-1.18
		c-0.256-0.372-0.508-0.71-0.76-1.012h-1.453v4.775h-2.946v-12.893c0.643-0.126,1.306-0.215,1.991-0.265
		C144.86,142.353,145.472,142.325,146.016,142.325z M146.185,144.835c-0.216,0-0.406,0.01-0.578,0.021
		c-0.169,0.013-0.329,0.024-0.479,0.037v3.549h0.83c1.105,0,1.901-0.139,2.378-0.415c0.479-0.276,0.719-0.75,0.719-1.416
		c0-0.643-0.242-1.098-0.728-1.367C147.84,144.974,147.128,144.835,146.185,144.835z"/>
	<path fill="#FFFFFF" d="M164.134,155.559c-0.144-0.455-0.301-0.922-0.47-1.401c-0.166-0.477-0.332-0.955-0.498-1.429h-5.109
		c-0.166,0.477-0.332,0.956-0.498,1.435c-0.166,0.479-0.319,0.943-0.464,1.396h-3.057c0.491-1.407,0.958-2.71,1.4-3.908
		c0.439-1.195,0.873-2.32,1.297-3.377c0.421-1.057,0.839-2.062,1.251-3.012c0.408-0.952,0.835-1.88,1.277-2.786h2.79
		c0.431,0.906,0.854,1.834,1.272,2.786c0.415,0.95,0.836,1.955,1.26,3.012s0.857,2.182,1.3,3.377
		c0.442,1.198,0.909,2.501,1.404,3.908H164.134z M160.598,145.44c-0.067,0.19-0.163,0.448-0.289,0.774
		c-0.126,0.328-0.271,0.706-0.433,1.134c-0.16,0.43-0.342,0.9-0.541,1.416c-0.2,0.517-0.402,1.058-0.608,1.623h3.739
		c-0.2-0.569-0.394-1.109-0.581-1.626c-0.188-0.52-0.365-0.992-0.534-1.419c-0.169-0.431-0.316-0.806-0.445-1.134
		C160.779,145.883,160.675,145.628,160.598,145.44z"/>
</g>
</svg>
