<?xml version="1.0" encoding="utf-8"?>
<!-- Generator: Adobe Illustrator 16.0.0, SVG Export Plug-In . SVG Version: 6.00 Build 0)  -->
<!DOCTYPE svg PUBLIC "-//W3C//DTD SVG 1.1//EN" "http://www.w3.org/Graphics/SVG/1.1/DTD/svg11.dtd">
<svg version="1.1" id="Capa_1" xmlns="http://www.w3.org/2000/svg" xmlns:xlink="http://www.w3.org/1999/xlink" x="0px" y="0px"
	 width="200px" height="200px" viewBox="0 0 200 200" enable-background="new 0 0 200 200" xml:space="preserve">
<g>
	<path fill="#E5B92E" d="M189.236,20.841c0,0-3.616,130.125-90.17,179.018c0,0-0.478-200.93-0.08-198.841
		C136.051,66.307,189.236,20.841,189.236,20.841"/>
	<path fill="#FFFFFF" d="M183.667,33.443c0,0-6.878,115.727-85.104,159.801c0,0,0.189-180.854,0.547-178.971
		c41.541,51.738,84.559,16.544,84.559,16.544"/>
	<path fill="#E5B92E" d="M180.889,38.468c0,0-11.377,108.977-81.684,150.366c0,0-0.313-169.543,0.008-167.771
		C137.732,66.308,180.889,38.468,180.889,38.468"/>
	<path fill="#FFDE5E" d="M8.814,20.841c0,0,52.936,45.467,90.172-19.825c0.398-2.087,0.41,198.847,0.41,198.847
		C12.446,150.973,8.814,20.841,8.814,20.841"/>
	<path fill="#FFFFFF" d="M14.012,30.52c2.027,1.65,41.529,38.014,85.097-16.246c0.357-1.883,0.007,178.672,0.007,178.672
		C20.893,148.869,14.012,33.145,14.012,33.145"/>
	<path fill="#FFDE5E" d="M18.995,40.302c0,0,39.769,28.406,80.218-19.241c0.322-1.769,0.12,166.901,0.12,166.901
		C29.024,146.57,18.995,40.302,18.995,40.302"/>
</g>
<g>
	<polygon fill="#253887" points="198,185.561 155.076,185.561 155.076,147.363 198,147.363 185.577,166.463 	"/>
	<polygon fill="#253887" points="4.124,185.561 47.051,185.561 47.051,147.363 4.124,147.363 16.545,166.463 	"/>
</g>
<path fill="#FFDE5F" d="M101.18,202.322"/>
<path fill="#FFDE5F" d="M189.466-204.171"/>
<rect x="35.667" y="133.953" fill="#1485C7" width="129.849" height="38.199"/>
<g>
	<path fill="#253887" d="M88.625,118.629h23.158c0.035-0.666,0.087-1.445,0.145-2.303H88.481
		C88.539,117.18,88.59,117.963,88.625,118.629L88.625,118.629z"/>
	<path fill="#253887" d="M102.943,113.285V98.711c0-0.346,0.098-0.686,0.289-0.976l2.679-4.068v-7.53
		c0-0.821-0.521-1.546-1.296-1.814l-0.43-0.133l-2.914,2.181c-0.629,0.471-1.498,0.471-2.123,0l-2.914-2.181l-0.434,0.133
		c-0.773,0.266-1.293,0.992-1.293,1.814v7.53l2.675,4.068c0.189,0.29,0.291,0.628,0.291,0.976v14.574H102.943L102.943,113.285z"/>
	<path fill="#253887" d="M88.815,121.672c0.789,8.355,7.401,8.361,11.389,8.361c3.987,0,10.599-0.006,11.39-8.361H88.815
		L88.815,121.672z"/>
	<path fill="#253887" d="M100.204,72.053c-1.082,0-1.964,0.881-1.964,1.964s0.879,1.964,1.964,1.964
		c1.082,0,1.962-0.881,1.962-1.964S101.286,72.053,100.204,72.053z"/>
	<path fill="#253887" d="M100.204,54.629c-14.186,0-25.729,11.541-25.729,25.727c0,7.461,3.98,12.415,7.829,17.204
		c1.209,1.502,2.457,3.055,3.58,4.68c1.247,1.803,1.946,6.711,2.351,11.045h5.683V99.24l-2.675-4.069
		c-0.189-0.29-0.291-0.628-0.291-0.974v-8.06c0-2.357,1.501-4.44,3.739-5.185c0.012-0.005,1.356-0.418,1.356-0.418
		c0.545-0.166,1.132-0.065,1.584,0.275l2.573,1.923l2.571-1.923c0.451-0.339,1.041-0.441,1.586-0.275c0,0,1.345,0.413,1.359,0.418
		c2.234,0.745,3.739,2.829,3.739,5.185v8.06c0,0.346-0.101,0.686-0.296,0.974l-2.671,4.069v14.043h5.685
		c0.398-4.336,1.104-9.242,2.348-11.045c1.125-1.627,2.375-3.178,3.578-4.68c3.85-4.791,7.828-9.743,7.828-17.204
		C125.934,66.169,114.395,54.629,100.204,54.629L100.204,54.629z M100.204,79.532c-3.041,0-5.514-2.473-5.514-5.512
		c0-3.039,2.473-5.512,5.514-5.512c3.038,0,5.512,2.473,5.512,5.512C105.719,77.058,103.242,79.532,100.204,79.532z"/>
</g>
<g enable-background="new    ">
	<path fill="#FFFFFF" d="M53.922,146.984h2.93V160h-2.93V146.984z"/>
	<path fill="#FFFFFF" d="M68.589,160c-0.839-1.49-1.747-2.961-2.723-4.414c-0.976-1.453-2.016-2.822-3.118-4.113V160h-2.892v-13.016
		h2.385c0.413,0.414,0.87,0.92,1.371,1.521c0.5,0.602,1.011,1.24,1.53,1.924c0.52,0.684,1.036,1.391,1.55,2.123
		c0.513,0.73,0.995,1.438,1.446,2.113v-7.684h2.911V160H68.589L68.589,160z"/>
	<path fill="#FFFFFF" d="M74.055,146.984h2.93V160h-2.93V146.984z"/>
	<path fill="#FFFFFF" d="M85.924,160.262c-2.116,0-3.729-0.588-4.836-1.768c-1.108-1.176-1.662-2.848-1.662-5.014
		c0-1.076,0.169-2.037,0.507-2.883s0.801-1.559,1.39-2.141c0.588-0.582,1.289-1.023,2.104-1.324
		c0.813-0.301,1.696-0.451,2.648-0.451c0.551,0,1.052,0.041,1.502,0.123c0.451,0.08,0.846,0.174,1.184,0.281
		c0.338,0.105,0.619,0.215,0.845,0.328s0.388,0.201,0.488,0.264l-0.845,2.365c-0.401-0.213-0.867-0.395-1.399-0.543
		c-0.532-0.15-1.137-0.227-1.813-0.227c-0.45,0-0.892,0.076-1.324,0.227c-0.432,0.148-0.813,0.391-1.146,0.723
		s-0.598,0.76-0.798,1.285c-0.2,0.527-0.301,1.166-0.301,1.916c0,0.602,0.065,1.162,0.197,1.682
		c0.132,0.521,0.345,0.967,0.639,1.342c0.294,0.377,0.679,0.674,1.155,0.895c0.476,0.219,1.052,0.328,1.728,0.328
		c0.426,0,0.808-0.023,1.146-0.074s0.639-0.109,0.901-0.178c0.263-0.07,0.495-0.148,0.695-0.236c0.2-0.086,0.382-0.168,0.545-0.244
		l0.807,2.348c-0.413,0.252-0.995,0.477-1.746,0.678C87.784,160.162,86.913,160.262,85.924,160.262z"/>
	<path fill="#FFFFFF" d="M92.16,146.984h2.93V160h-2.93V146.984z"/>
	<path fill="#FFFFFF" d="M106.826,160c-0.146-0.453-0.301-0.918-0.469-1.395c-0.166-0.477-0.332-0.951-0.498-1.424h-5.084
		c-0.164,0.475-0.328,0.951-0.494,1.428c-0.164,0.479-0.317,0.941-0.461,1.391h-3.042c0.49-1.402,0.955-2.699,1.395-3.889
		c0.44-1.189,0.869-2.309,1.29-3.361c0.421-1.051,0.835-2.051,1.243-2.996c0.407-0.945,0.833-1.867,1.272-2.77h2.776
		c0.429,0.902,0.851,1.824,1.265,2.77c0.416,0.945,0.834,1.945,1.256,2.996c0.42,1.053,0.852,2.172,1.291,3.361
		c0.44,1.189,0.906,2.486,1.396,3.889H106.826z M103.305,149.934c-0.063,0.188-0.16,0.445-0.287,0.77
		c-0.125,0.324-0.268,0.701-0.43,1.129c-0.16,0.426-0.34,0.895-0.539,1.406c-0.199,0.516-0.4,1.053-0.605,1.613h3.723
		c-0.199-0.564-0.393-1.104-0.58-1.617c-0.186-0.516-0.363-0.982-0.531-1.412c-0.168-0.426-0.316-0.801-0.441-1.127
		C103.486,150.373,103.383,150.117,103.305,149.934z"/>
	<path fill="#FFFFFF" d="M119.748,146.984v2.498h-3.926V160h-2.93v-10.518h-3.925v-2.498H119.748z"/>
	<path fill="#FFFFFF" d="M121.627,146.984h2.93V160h-2.93V146.984z"/>
	<path fill="#FFFFFF" d="M131.451,160c-0.518-1.094-1.027-2.229-1.531-3.404c-0.506-1.176-0.984-2.338-1.438-3.49
		c-0.453-1.15-0.869-2.252-1.25-3.303c-0.381-1.053-0.709-1.992-0.986-2.818h3.23c0.244,0.754,0.516,1.564,0.813,2.436
		c0.299,0.867,0.604,1.732,0.912,2.598c0.308,0.863,0.605,1.689,0.889,2.479c0.284,0.791,0.555,1.475,0.814,2.049
		c0.244-0.57,0.512-1.252,0.803-2.041c0.289-0.791,0.59-1.617,0.898-2.48c0.308-0.863,0.612-1.729,0.91-2.598
		c0.299-0.869,0.569-1.684,0.813-2.439h3.118c-0.29,0.83-0.627,1.77-1.006,2.82c-0.379,1.049-0.795,2.15-1.246,3.303
		c-0.448,1.152-0.926,2.316-1.426,3.494s-1.01,2.309-1.524,3.398h-2.794V160z"/>
	<path fill="#FFFFFF" d="M148.633,160c-0.146-0.453-0.301-0.918-0.469-1.395c-0.166-0.477-0.332-0.951-0.498-1.424h-5.082
		c-0.164,0.475-0.33,0.951-0.494,1.428c-0.166,0.479-0.318,0.941-0.461,1.391h-3.043c0.49-1.402,0.955-2.699,1.395-3.889
		c0.44-1.189,0.869-2.309,1.289-3.361c0.422-1.051,0.836-2.051,1.244-2.996s0.832-1.867,1.271-2.77h2.777
		c0.428,0.902,0.85,1.824,1.264,2.77c0.416,0.945,0.834,1.945,1.256,2.996c0.42,1.053,0.852,2.172,1.291,3.361
		c0.441,1.189,0.906,2.486,1.396,3.889H148.633z M145.111,149.934c-0.064,0.188-0.16,0.445-0.287,0.77
		c-0.125,0.324-0.268,0.701-0.43,1.129c-0.16,0.426-0.34,0.895-0.539,1.406c-0.199,0.516-0.4,1.053-0.605,1.613h3.723
		c-0.199-0.564-0.393-1.104-0.58-1.617c-0.186-0.516-0.363-0.982-0.531-1.412c-0.168-0.426-0.315-0.801-0.44-1.127
		C145.293,150.373,145.189,150.117,145.111,149.934z"/>
</g>
</svg>
