<?xml version="1.0" encoding="utf-8"?>
<!-- Generator: Adobe Illustrator 16.0.0, SVG Export Plug-In . SVG Version: 6.00 Build 0)  -->
<!DOCTYPE svg PUBLIC "-//W3C//DTD SVG 1.1//EN" "http://www.w3.org/Graphics/SVG/1.1/DTD/svg11.dtd">
<svg version="1.1" id="Capa_1" xmlns="http://www.w3.org/2000/svg" xmlns:xlink="http://www.w3.org/1999/xlink" x="0px" y="0px"
	 width="200px" height="200px" viewBox="0 0 200 200" enable-background="new 0 0 200 200" xml:space="preserve">
<g>
	<path fill="#E5B92E" d="M189.651,20.173c0,0-3.634,130.784-90.628,179.925c0,0-0.481-201.948-0.082-199.85
		C136.196,65.87,189.651,20.173,189.651,20.173"/>
	<path fill="#FFFFFF" d="M184.051,32.839c0,0-6.916,116.311-85.536,160.611c0,0,0.189-181.772,0.549-179.88
		c41.751,52.001,84.986,16.628,84.986,16.628"/>
	<path fill="#E5B92E" d="M181.261,37.889c0,0-11.435,109.529-82.099,151.128c0,0-0.317-170.402,0.007-168.625
		C137.883,65.871,181.261,37.889,181.261,37.889"/>
	<path fill="#FFDE5E" d="M8.313,20.173c0,0,53.204,45.698,90.629-19.926c0.399-2.098,0.412,199.857,0.412,199.857
		C11.963,150.964,8.313,20.173,8.313,20.173"/>
	<path fill="#FFFFFF" d="M13.536,29.897c2.035,1.66,41.74,38.207,85.528-16.328c0.36-1.892,0.007,179.579,0.007,179.579
		C20.451,148.851,13.536,32.539,13.536,32.539"/>
	<path fill="#FFDE5E" d="M18.543,39.73c0,0,39.972,28.55,80.625-19.339c0.324-1.777,0.12,167.747,0.12,167.747
		C28.624,146.539,18.543,39.73,18.543,39.73"/>
</g>
<g>
	<polygon fill="#84445C" points="197.384,183.849 154.239,183.849 154.239,145.455 197.384,145.455 184.896,164.65 	"/>
	<polygon fill="#84445C" points="2.523,183.849 45.665,183.849 45.665,145.455 2.523,145.455 15.008,164.65 	"/>
</g>
<path fill="#FFDE5F" d="M100.072,201.841"/>
<path fill="#FFDE5F" d="M188.803,22.305"/>
<rect x="34.226" y="131.98" fill="#CB688D" width="130.51" height="38.391"/>
<g>
	<path fill="#84445C" d="M99.679,62.179c3.929,0,7.127-3.195,7.127-7.125s-3.195-7.126-7.127-7.126
		c-3.929,0-7.124,3.197-7.124,7.126C92.552,58.981,95.75,62.179,99.679,62.179z"/>
	<path fill="#84445C" d="M88.447,84.038h22.464c1.467,0,2.653-1.186,2.653-2.649v-9.797c0-2.709-1.744-5.115-4.318-5.959
		l-0.014-0.003l-3.769-0.624c-0.322-0.099-0.663,0.072-0.78,0.389l-4.277,11.733c-0.246,0.676-1.204,0.676-1.449,0L94.68,65.395
		c-0.094-0.256-0.333-0.417-0.593-0.417c-0.062,0-3.957,0.651-3.957,0.651c-2.597,0.865-4.333,3.273-4.333,5.998v9.764
		C85.796,82.852,86.98,84.038,88.447,84.038L88.447,84.038z"/>
	<path fill="#84445C" d="M132.172,102.117c-0.016-0.007-0.03-0.01-0.043-0.017l-2.041-0.623c-0.614-0.188-1.277-0.036-1.753,0.391
		l-4.397,3.976l-4.399-3.976c-0.477-0.43-1.14-0.578-1.754-0.391l-2.04,0.623c-0.016,0.007-0.027,0.01-0.039,0.017
		c-3.08,1.025-5.145,3.896-5.145,7.144v11.3c0,1.008,0.814,1.819,1.819,1.819h23.122c1.005,0,1.815-0.814,1.815-1.819v-11.3
		C137.317,106.013,135.249,103.143,132.172,102.117L132.172,102.117z"/>
	<path fill="#84445C" d="M123.938,100.221c4.191,0,7.601-3.409,7.601-7.601c0-4.192-3.409-7.601-7.601-7.601
		c-4.19,0-7.601,3.409-7.601,7.601C116.337,96.812,119.747,100.221,123.938,100.221L123.938,100.221z"/>
	<path fill="#84445C" d="M83.476,102.117c-0.014-0.007-0.029-0.01-0.042-0.017l-2.04-0.623c-0.614-0.188-1.279-0.039-1.754,0.391
		l-4.396,3.976l-4.397-3.976c-0.476-0.43-1.142-0.578-1.755-0.391c0,0-2.067,0.633-2.081,0.64c-3.078,1.025-5.146,3.896-5.146,7.144
		v11.3c0,1.008,0.814,1.819,1.819,1.819h23.123c1.006,0,1.821-0.814,1.821-1.819v-11.3
		C88.623,106.013,86.554,103.143,83.476,102.117z"/>
	<path fill="#84445C" d="M67.642,92.62c0,4.191,3.409,7.601,7.601,7.601c4.192,0,7.601-3.41,7.601-7.601
		c0-4.192-3.409-7.601-7.601-7.601C71.05,85.019,67.642,88.43,67.642,92.62z"/>
	<path fill="#84445C" d="M126.016,72.576c-0.624-0.186-1.325-0.06-1.85,0.4c-0.809,0.712-0.889,1.944-0.18,2.753l2.667,3.034
		c0.369,0.422,0.903,0.663,1.466,0.663c0.563,0,1.097-0.241,1.468-0.663l2.668-3.034c0.709-0.811,0.63-2.042-0.179-2.753
		c-0.605-0.531-1.444-0.62-2.129-0.296c-0.396-4.259-2.059-8.258-4.808-11.389c-0.71-0.81-1.942-0.889-2.751-0.178
		c-0.811,0.71-0.89,1.943-0.178,2.753C124.313,66.261,125.621,69.307,126.016,72.576L126.016,72.576z"/>
	<path fill="#84445C" d="M69.77,78.765c0.371,0.421,0.905,0.662,1.467,0.662c0.561,0,1.095-0.241,1.466-0.662l2.668-3.034
		c0.711-0.81,0.63-2.042-0.18-2.753c-0.523-0.461-1.225-0.586-1.848-0.4c0.393-3.27,1.701-6.315,3.803-8.708
		c0.711-0.81,0.631-2.042-0.177-2.753c-0.811-0.712-2.042-0.632-2.753,0.178c-2.751,3.131-4.411,7.128-4.808,11.389
		c-0.683-0.324-1.522-0.234-2.126,0.296c-0.81,0.711-0.889,1.944-0.178,2.752L69.77,78.765z"/>
	<path fill="#84445C" d="M101.145,65.116c-0.164-0.18-0.406-0.269-0.648-0.269h-1.815c-0.242,0-0.484,0.089-0.648,0.269
		c-0.254,0.278-0.292,0.678-0.111,0.991l0.971,1.462l-0.455,3.828l0.894,2.379c0.087,0.238,0.424,0.238,0.513,0l0.894-2.379
		l-0.454-3.828l0.971-1.462C101.437,65.792,101.399,65.395,101.145,65.116L101.145,65.116z"/>
</g>
<path fill="#FFFFFF" d="M51.238,156.504v2.739H41.77v-14.169h3.19v11.43H51.238z"/>
<path fill="#FFFFFF" d="M53.282,145.074h3.19v14.169h-3.19V145.074z"/>
<path fill="#FFFFFF" d="M72.157,152.15c0,1.226-0.191,2.295-0.572,3.21c-0.382,0.912-0.924,1.668-1.625,2.268
	c-0.703,0.602-1.558,1.049-2.567,1.351c-1.008,0.298-2.14,0.449-3.395,0.449c-0.572,0-1.241-0.025-2.004-0.07
	c-0.764-0.051-1.514-0.148-2.249-0.298v-13.801c0.735-0.138,1.502-0.23,2.3-0.277c0.798-0.049,1.483-0.073,2.056-0.073
	c1.212,0,2.314,0.139,3.302,0.412c0.988,0.271,1.837,0.7,2.545,1.287c0.709,0.586,1.254,1.337,1.637,2.249
	C71.966,149.769,72.157,150.868,72.157,152.15z M62.935,156.647c0.149,0.013,0.323,0.024,0.521,0.03
	c0.197,0.007,0.432,0.01,0.706,0.01c1.595,0,2.777-0.402,3.548-1.204c0.771-0.805,1.155-1.917,1.155-3.333
	c0-1.487-0.368-2.611-1.104-3.377c-0.737-0.762-1.902-1.143-3.497-1.143c-0.218,0-0.443,0.002-0.675,0.009
	c-0.232,0.006-0.449,0.025-0.654,0.052V156.647z"/>
<path fill="#FFFFFF" d="M74.816,159.243v-14.169h9.57v2.679h-6.38v2.781h5.664v2.617h-5.664v3.413h6.85v2.679H74.816z"/>
<path fill="#FFFFFF" d="M91.358,144.908c2.127,0,3.755,0.381,4.888,1.137c1.131,0.756,1.698,1.933,1.698,3.527
	c0,0.996-0.229,1.804-0.685,2.424c-0.458,0.62-1.115,1.106-1.974,1.463c0.287,0.353,0.587,0.758,0.9,1.216
	c0.314,0.455,0.624,0.934,0.932,1.432c0.305,0.498,0.602,1.015,0.889,1.552c0.286,0.54,0.551,1.069,0.797,1.585h-3.567
	c-0.259-0.464-0.523-0.934-0.789-1.409c-0.268-0.478-0.541-0.941-0.822-1.392c-0.28-0.449-0.558-0.876-0.831-1.278
	c-0.273-0.4-0.547-0.766-0.82-1.094h-1.575v5.173h-3.19v-13.966c0.696-0.136,1.415-0.23,2.157-0.286
	C90.108,144.937,90.773,144.908,91.358,144.908z M91.542,147.631c-0.232,0-0.439,0.006-0.623,0.019
	c-0.185,0.016-0.358,0.027-0.521,0.042v3.845h0.898c1.2,0,2.059-0.151,2.579-0.449c0.518-0.302,0.777-0.811,0.777-1.536
	c0-0.694-0.263-1.188-0.788-1.48C93.338,147.774,92.565,147.631,91.542,147.631z"/>
<path fill="#FFFFFF" d="M110.988,159.243c-0.16-0.491-0.329-0.998-0.511-1.517c-0.181-0.517-0.362-1.036-0.54-1.549H104.4
	c-0.178,0.517-0.356,1.035-0.537,1.554c-0.179,0.52-0.347,1.022-0.501,1.512h-3.314c0.534-1.526,1.041-2.937,1.518-4.232
	c0.479-1.294,0.946-2.514,1.407-3.66c0.458-1.146,0.909-2.233,1.352-3.262c0.445-1.029,0.906-2.034,1.386-3.015h3.022
	c0.468,0.98,0.925,1.985,1.377,3.015c0.451,1.028,0.909,2.116,1.367,3.262c0.458,1.146,0.928,2.366,1.407,3.66
	c0.479,1.296,0.986,2.706,1.521,4.232H110.988z M107.153,148.285c-0.07,0.205-0.175,0.484-0.31,0.839
	c-0.139,0.353-0.296,0.764-0.47,1.228c-0.176,0.466-0.372,0.975-0.588,1.534c-0.215,0.559-0.437,1.144-0.66,1.758h4.053
	c-0.215-0.614-0.428-1.205-0.63-1.765c-0.203-0.559-0.396-1.071-0.578-1.535c-0.184-0.464-0.344-0.873-0.481-1.227
	C107.351,148.761,107.24,148.484,107.153,148.285z"/>
<path fill="#FFFFFF" d="M126.715,147.28c-0.436,0.452-0.955,1.035-1.554,1.751c-0.6,0.716-1.22,1.496-1.862,2.341
	c-0.642,0.846-1.275,1.718-1.902,2.618c-0.629,0.9-1.188,1.758-1.677,2.574h7.22v2.679h-11.144v-1.901
	c0.381-0.694,0.849-1.469,1.401-2.319c0.55-0.851,1.127-1.711,1.727-2.578c0.599-0.865,1.211-1.704,1.831-2.516
	s1.195-1.536,1.727-2.176h-6.359v-2.679h10.593V147.28z"/>
<path fill="#FFFFFF" d="M135.854,147.525c-1.486,0-2.559,0.415-3.219,1.238c-0.664,0.826-0.992,1.954-0.992,3.387
	c0,0.694,0.079,1.323,0.245,1.89c0.163,0.565,0.409,1.054,0.734,1.461c0.329,0.409,0.737,0.726,1.229,0.953
	c0.489,0.224,1.063,0.339,1.718,0.339c0.354,0,0.658-0.01,0.909-0.022c0.253-0.012,0.474-0.04,0.664-0.083v-4.928h3.19v7.014
	c-0.383,0.15-0.994,0.311-1.839,0.482c-0.849,0.168-1.89,0.255-3.13,0.255c-1.063,0-2.028-0.163-2.895-0.492
	c-0.863-0.325-1.604-0.806-2.219-1.431c-0.611-0.627-1.087-1.398-1.419-2.311c-0.335-0.913-0.501-1.957-0.501-3.127
	c0-1.187,0.181-2.237,0.551-3.149c0.367-0.916,0.871-1.69,1.514-2.322c0.64-0.634,1.392-1.116,2.259-1.441
	c0.866-0.329,1.791-0.491,2.771-0.491c0.671,0,1.272,0.045,1.81,0.132c0.538,0.089,1.002,0.194,1.392,0.308
	c0.387,0.116,0.711,0.235,0.962,0.358c0.251,0.124,0.43,0.219,0.54,0.286l-0.918,2.557c-0.438-0.231-0.94-0.434-1.506-0.603
	C137.14,147.612,136.521,147.525,135.854,147.525z"/>
<path fill="#FFFFFF" d="M156.796,152.15c0,1.213-0.182,2.279-0.545,3.198c-0.358,0.922-0.854,1.692-1.48,2.31
	c-0.626,0.62-1.373,1.087-2.24,1.401c-0.865,0.313-1.797,0.47-2.792,0.47c-0.968,0-1.88-0.157-2.74-0.47
	c-0.857-0.314-1.607-0.781-2.249-1.401c-0.64-0.617-1.143-1.388-1.512-2.31c-0.368-0.919-0.553-1.985-0.553-3.198
	c0-1.214,0.19-2.283,0.571-3.202c0.384-0.922,0.897-1.692,1.546-2.322c0.647-0.626,1.397-1.098,2.248-1.41
	c0.852-0.313,1.748-0.47,2.688-0.47c0.968,0,1.884,0.156,2.74,0.47c0.86,0.313,1.609,0.784,2.249,1.41
	c0.643,0.63,1.146,1.4,1.514,2.322C156.611,149.867,156.796,150.937,156.796,152.15z M145.979,152.15c0,0.694,0.082,1.32,0.254,1.88
	c0.17,0.559,0.415,1.039,0.734,1.44c0.322,0.402,0.713,0.713,1.177,0.932c0.464,0.217,0.995,0.328,1.595,0.328
	c0.586,0,1.115-0.111,1.585-0.328c0.47-0.219,0.866-0.529,1.187-0.932c0.319-0.401,0.565-0.882,0.737-1.44
	c0.168-0.56,0.255-1.186,0.255-1.88c0-0.697-0.087-1.327-0.255-1.893c-0.172-0.566-0.418-1.051-0.737-1.454
	c-0.32-0.399-0.717-0.709-1.187-0.928s-0.999-0.328-1.585-0.328c-0.6,0-1.131,0.113-1.595,0.338
	c-0.464,0.224-0.854,0.537-1.177,0.94c-0.319,0.401-0.564,0.888-0.734,1.452C146.061,150.844,145.979,151.468,145.979,152.15z"/>
</svg>
