<?xml version="1.0" encoding="utf-8"?>
<!-- Generator: Adobe Illustrator 16.0.0, SVG Export Plug-In . SVG Version: 6.00 Build 0)  -->
<!DOCTYPE svg PUBLIC "-//W3C//DTD SVG 1.1//EN" "http://www.w3.org/Graphics/SVG/1.1/DTD/svg11.dtd">
<svg version="1.1" id="Capa_1" xmlns="http://www.w3.org/2000/svg" xmlns:xlink="http://www.w3.org/1999/xlink" x="0px" y="0px"
	 width="200px" height="200px" viewBox="0 0 200 200" enable-background="new 0 0 200 200" xml:space="preserve">
<g>
	<path fill="#E5B92E" d="M189.573,20.909c0,0-3.621,130.271-90.273,179.22c0,0-0.481-201.158-0.083-199.066
		C136.327,66.425,189.573,20.909,189.573,20.909"/>
	<path fill="#FFFFFF" d="M183.996,33.525c0,0-6.888,115.855-85.201,159.98c0,0,0.187-181.058,0.546-179.172
		c41.588,51.796,84.655,16.563,84.655,16.563"/>
	<path fill="#E5B92E" d="M181.216,38.554c0,0-11.392,109.101-81.778,150.536c0,0-0.315-169.734,0.006-167.962
		C138.008,66.428,181.216,38.554,181.216,38.554"/>
	<path fill="#FFDE5E" d="M8.945,20.91c0,0,52.995,45.518,90.274-19.847c0.397-2.092,0.411,199.072,0.411,199.072
		C12.582,151.187,8.945,20.91,8.945,20.91"/>
	<path fill="#FFFFFF" d="M14.148,30.596c2.028,1.653,41.577,38.057,85.193-16.263c0.358-1.885,0.009,178.874,0.009,178.874
		C21.038,149.08,14.148,33.224,14.148,33.224"/>
	<path fill="#FFDE5E" d="M19.136,40.391c0,0,39.814,28.438,80.309-19.264c0.324-1.772,0.12,167.087,0.12,167.087
		C29.177,146.778,19.136,40.391,19.136,40.391"/>
</g>
<g>
	<polygon fill="#41167F" points="196.191,183.526 153.217,183.526 153.217,145.282 196.191,145.282 183.755,164.402 	"/>
	<polygon fill="#41167F" points="2.096,183.526 45.07,183.526 45.07,145.282 2.096,145.282 14.533,164.402 	"/>
</g>
<path fill="#FFDE5F" d="M99.261,201.447"/>
<path fill="#FFDE5F" d="M187.647,22.615"/>
<rect x="25.84" y="129.887" fill="#5700FF" width="145.665" height="38.243"/>
<g enable-background="new    ">
	<path fill="#FFFFFF" d="M35.503,141.674c0.227,0.413,0.487,0.925,0.783,1.534c0.295,0.607,0.604,1.265,0.923,1.976
		c0.321,0.705,0.638,1.432,0.952,2.169c0.314,0.742,0.609,1.438,0.887,2.087c0.275-0.648,0.571-1.345,0.885-2.087
		c0.313-0.737,0.631-1.464,0.951-2.169c0.321-0.711,0.628-1.368,0.924-1.976c0.294-0.609,0.556-1.121,0.782-1.534h2.669
		c0.126,0.867,0.241,1.834,0.349,2.904c0.106,1.073,0.2,2.188,0.281,3.351c0.082,1.158,0.157,2.32,0.226,3.489
		c0.069,1.162,0.128,2.261,0.179,3.291h-2.858c-0.038-1.268-0.088-2.645-0.15-4.139c-0.064-1.49-0.158-2.995-0.282-4.511
		c-0.228,0.526-0.479,1.108-0.754,1.747c-0.277,0.639-0.55,1.276-0.82,1.92c-0.27,0.636-0.532,1.247-0.784,1.832
		c-0.25,0.582-0.466,1.079-0.641,1.493h-2.05c-0.175-0.414-0.39-0.911-0.64-1.493c-0.253-0.585-0.513-1.196-0.783-1.832
		c-0.272-0.64-0.544-1.279-0.822-1.92c-0.275-0.639-0.528-1.221-0.754-1.747c-0.125,1.516-0.219,3.021-0.281,4.511
		c-0.063,1.494-0.113,2.871-0.151,4.139h-2.857c0.05-1.029,0.109-2.128,0.178-3.291c0.069-1.166,0.145-2.329,0.226-3.489
		c0.082-1.161,0.175-2.277,0.283-3.351c0.106-1.07,0.222-2.037,0.347-2.904H35.503z"/>
	<path fill="#FFFFFF" d="M61.318,148.181c0,1.114-0.166,2.097-0.498,2.94c-0.333,0.849-0.787,1.555-1.363,2.127
		c-0.577,0.568-1.263,0.998-2.059,1.284c-0.796,0.292-1.652,0.433-2.567,0.433c-0.89,0-1.73-0.144-2.519-0.433
		c-0.79-0.29-1.479-0.716-2.068-1.284c-0.589-0.572-1.054-1.278-1.392-2.127c-0.338-0.844-0.507-1.826-0.507-2.94
		c0-1.117,0.175-2.097,0.526-2.943c0.35-0.846,0.824-1.559,1.419-2.133c0.595-0.576,1.285-1.012,2.068-1.299
		c0.783-0.286,1.607-0.431,2.472-0.431c0.89,0,1.729,0.145,2.52,0.431c0.791,0.287,1.48,0.723,2.068,1.299
		c0.589,0.574,1.053,1.287,1.391,2.133C61.149,146.084,61.318,147.063,61.318,148.181z M51.372,148.181
		c0,0.64,0.079,1.215,0.235,1.729c0.157,0.514,0.383,0.955,0.677,1.326c0.294,0.372,0.655,0.653,1.081,0.856
		c0.424,0.2,0.913,0.299,1.466,0.299c0.54,0,1.025-0.099,1.458-0.299c0.432-0.203,0.795-0.486,1.09-0.856
		c0.294-0.369,0.521-0.813,0.677-1.326s0.235-1.089,0.235-1.729c0-0.642-0.078-1.222-0.235-1.741
		c-0.157-0.518-0.383-0.964-0.677-1.334c-0.295-0.37-0.658-0.655-1.09-0.854c-0.433-0.202-0.918-0.303-1.458-0.303
		c-0.553,0-1.042,0.104-1.466,0.312c-0.426,0.206-0.787,0.496-1.081,0.863c-0.294,0.37-0.521,0.817-0.677,1.338
		C51.45,146.981,51.372,147.554,51.372,148.181z"/>
	<path fill="#FFFFFF" d="M67.188,154.705c-0.519-1.096-1.031-2.231-1.534-3.409c-0.505-1.175-0.984-2.341-1.437-3.493
		c-0.454-1.152-0.871-2.254-1.252-3.307c-0.38-1.058-0.709-1.996-0.986-2.823h3.234c0.245,0.751,0.516,1.566,0.813,2.438
		c0.297,0.869,0.604,1.736,0.914,2.602c0.311,0.863,0.606,1.692,0.891,2.481c0.283,0.793,0.554,1.475,0.815,2.05
		c0.245-0.572,0.513-1.251,0.803-2.044c0.292-0.789,0.59-1.618,0.899-2.481c0.308-0.865,0.614-1.732,0.912-2.602
		c0.299-0.868,0.568-1.683,0.816-2.443h3.121c-0.294,0.832-0.627,1.773-1.008,2.826c-0.378,1.05-0.796,2.151-1.249,3.304
		c-0.45,1.152-0.927,2.318-1.426,3.496c-0.501,1.179-1.013,2.315-1.527,3.403h-2.8V154.705z"/>
	<path fill="#FFFFFF" d="M76.867,141.674h2.934v13.031h-2.934V141.674z"/>
	<path fill="#FFFFFF" d="M86.269,141.674c0.228,0.413,0.487,0.925,0.782,1.534c0.295,0.607,0.605,1.265,0.925,1.976
		c0.32,0.705,0.637,1.432,0.951,2.169c0.313,0.742,0.61,1.438,0.885,2.087c0.277-0.648,0.571-1.345,0.885-2.087
		c0.315-0.737,0.631-1.464,0.951-2.169c0.322-0.711,0.629-1.368,0.925-1.976c0.294-0.609,0.556-1.121,0.783-1.534h2.67
		c0.125,0.867,0.241,1.834,0.348,2.904c0.105,1.073,0.2,2.188,0.283,3.351c0.081,1.16,0.156,2.32,0.227,3.489
		c0.069,1.162,0.128,2.261,0.177,3.291h-2.856c-0.037-1.268-0.089-2.645-0.152-4.139c-0.062-1.49-0.157-2.995-0.281-4.511
		c-0.228,0.526-0.478,1.108-0.754,1.747c-0.276,0.639-0.551,1.276-0.819,1.92c-0.271,0.636-0.532,1.247-0.783,1.832
		c-0.25,0.582-0.465,1.079-0.641,1.493h-2.049c-0.178-0.414-0.391-0.911-0.642-1.493c-0.251-0.585-0.513-1.196-0.782-1.832
		c-0.271-0.64-0.546-1.279-0.819-1.92c-0.278-0.639-0.528-1.221-0.753-1.747c-0.125,1.516-0.221,3.021-0.284,4.511
		c-0.063,1.494-0.111,2.871-0.151,4.139h-2.858c0.049-1.029,0.109-2.128,0.179-3.291c0.068-1.166,0.144-2.329,0.225-3.489
		c0.084-1.161,0.176-2.277,0.284-3.351c0.105-1.07,0.223-2.037,0.349-2.904H86.269z"/>
	<path fill="#FFFFFF" d="M99.673,141.674h2.934v13.031h-2.934V141.674z"/>
	<path fill="#FFFFFF" d="M105.614,154.705v-13.031h8.801v2.464h-5.866v2.556h5.209v2.409h-5.209v3.139h6.299v2.464H105.614z"/>
	<path fill="#FFFFFF" d="M125.754,154.705c-0.842-1.494-1.75-2.966-2.728-4.419c-0.979-1.453-2.018-2.827-3.118-4.119v8.538h-2.897
		v-13.031h2.387c0.413,0.413,0.872,0.923,1.374,1.524c0.499,0.601,1.011,1.242,1.53,1.927c0.521,0.688,1.037,1.394,1.552,2.125
		c0.515,0.733,0.997,1.438,1.447,2.117v-7.69h2.917v13.029L125.754,154.705L125.754,154.705z"/>
	<path fill="#FFFFFF" d="M140.887,141.674v2.501h-3.93v10.531h-2.931v-10.531h-3.93v-2.501H140.887z"/>
	<path fill="#FFFFFF" d="M154.746,148.181c0,1.114-0.167,2.097-0.498,2.94c-0.334,0.849-0.787,1.555-1.361,2.127
		c-0.579,0.568-1.264,0.998-2.061,1.284c-0.795,0.292-1.652,0.433-2.567,0.433c-0.89,0-1.729-0.144-2.518-0.433
		c-0.791-0.29-1.48-0.716-2.067-1.284c-0.592-0.572-1.053-1.278-1.395-2.127c-0.336-0.844-0.506-1.826-0.506-2.94
		c0-1.117,0.176-2.097,0.525-2.943c0.354-0.846,0.825-1.559,1.419-2.133c0.598-0.576,1.285-1.012,2.068-1.299
		c0.783-0.286,1.61-0.431,2.473-0.431c0.891,0,1.729,0.145,2.519,0.431c0.788,0.287,1.481,0.723,2.069,1.299
		c0.591,0.574,1.053,1.287,1.392,2.133C154.579,146.084,154.746,147.063,154.746,148.181z M144.801,148.181
		c0,0.64,0.077,1.215,0.232,1.729c0.159,0.514,0.383,0.955,0.681,1.326c0.293,0.37,0.653,0.653,1.08,0.856
		c0.423,0.2,0.915,0.299,1.465,0.299c0.539,0,1.025-0.099,1.457-0.299c0.436-0.203,0.796-0.486,1.093-0.856
		c0.295-0.369,0.52-0.813,0.677-1.326c0.156-0.514,0.234-1.089,0.234-1.729c0-0.642-0.079-1.222-0.234-1.741
		c-0.157-0.518-0.382-0.964-0.677-1.334c-0.297-0.37-0.657-0.655-1.093-0.854c-0.43-0.202-0.918-0.303-1.457-0.303
		c-0.55,0-1.04,0.104-1.465,0.312c-0.427,0.206-0.787,0.496-1.08,0.863c-0.298,0.37-0.521,0.817-0.681,1.338
		C144.878,146.981,144.801,147.554,144.801,148.181z"/>
	<path fill="#FFFFFF" d="M160.742,152.468c0.418,0,0.756-0.035,1.025-0.102c0.27-0.071,0.486-0.164,0.647-0.284
		c0.163-0.117,0.275-0.26,0.341-0.424c0.061-0.163,0.094-0.343,0.094-0.546c0-0.422-0.201-0.779-0.602-1.062
		c-0.401-0.281-1.088-0.585-2.067-0.913c-0.424-0.149-0.851-0.32-1.279-0.516c-0.424-0.193-0.809-0.438-1.143-0.732
		c-0.34-0.296-0.616-0.651-0.83-1.074c-0.211-0.419-0.318-0.931-0.318-1.53c0-0.603,0.113-1.144,0.336-1.628
		c0.229-0.481,0.549-0.894,0.962-1.229c0.413-0.341,0.915-0.601,1.502-0.781c0.591-0.184,1.255-0.271,1.995-0.271
		c0.876,0,1.635,0.092,2.274,0.281c0.638,0.187,1.166,0.396,1.579,0.621l-0.845,2.311c-0.364-0.187-0.768-0.352-1.214-0.499
		c-0.444-0.144-0.98-0.214-1.607-0.214c-0.701,0-1.206,0.098-1.516,0.29c-0.306,0.196-0.458,0.493-0.458,0.894
		c0,0.239,0.055,0.438,0.168,0.601c0.113,0.165,0.272,0.313,0.48,0.444c0.205,0.131,0.443,0.25,0.713,0.357
		c0.27,0.104,0.569,0.216,0.894,0.327c0.677,0.252,1.267,0.499,1.769,0.745c0.5,0.243,0.919,0.529,1.25,0.854
		c0.332,0.327,0.58,0.711,0.742,1.146c0.164,0.44,0.245,0.973,0.245,1.599c0,1.217-0.425,2.161-1.279,2.833
		c-0.854,0.669-2.134,1.006-3.856,1.006c-0.574,0-1.095-0.036-1.557-0.103c-0.466-0.071-0.876-0.153-1.232-0.256
		c-0.355-0.099-0.665-0.207-0.922-0.317c-0.258-0.112-0.475-0.22-0.649-0.322l0.826-2.329c0.39,0.215,0.87,0.403,1.438,0.574
		C159.218,152.383,159.916,152.468,160.742,152.468z"/>
</g>
<g>
	<path fill="#41167F" d="M116.607,69.209c4.184,0,7.586-3.403,7.586-7.585c0-0.336-0.024-0.667-0.067-0.993l0.882-0.017
		c1.02-0.021,2.12-0.73,2.564-1.655l0.728-1.527c0.27-0.575,0.258-1.175-0.043-1.646c-0.293-0.471-0.831-0.742-1.472-0.742
		l-6.378,0.015c-1.113-0.647-2.408-1.02-3.791-1.02c-4.181,0-7.587,3.401-7.587,7.585C109.029,65.806,112.427,69.209,116.607,69.209
		z"/>
	<path fill="#41167F" d="M134.27,88.917l-8.849-16.088c-0.62-1.129-1.398-2.014-3.408-2.014h-9.021
		c-1.256,0-2.266,0.929-2.504,1.181l-4.843,5.091c-0.783,0.822-1.578,2.34-1.811,3.453l-1.993,9.526
		c-0.03,0.133-0.04,0.267-0.046,0.4l-5.045,19.462H67.603c-1.469,0-2.663,1.193-2.663,2.663c0,0.632,0.223,1.208,0.589,1.664
		c-0.554,0.939-0.875,2.031-0.875,3.193c0,3.472,2.821,6.287,6.288,6.287s6.286-2.815,6.286-6.287c0-0.771-0.141-1.514-0.396-2.195
		h11.765c-0.256,0.685-0.396,1.425-0.396,2.195c0,3.472,2.82,6.287,6.287,6.287c3.466,0,6.288-2.815,6.288-6.287
		c0-1.062-0.265-2.059-0.73-2.937c0.772-0.543,1.366-1.341,1.612-2.288l5.296-20.453c0.138-0.214,0.246-0.446,0.318-0.691
		l2.158-7.346c0.146-0.503,0.502-1.166,0.897-1.72v12.232l-5.892,25.265c-0.509,2.178,0.833,4.422,2.989,5.004l0.065,0.019
		c0.342,0.095,0.694,0.143,1.049,0.143l0,0c1.848,0,3.434-1.267,3.855-3.075l5.379-23.058l2.098,5.697
		c0.576,1.571,1.21,4.3,1.384,5.964l1.122,10.855c0.204,1.92,1.718,3.308,3.603,3.308c0.304,0,0.621-0.035,0.929-0.109l0.063-0.019
		c2.138-0.518,3.652-2.711,3.378-4.895l-1.671-13.241c-0.229-1.808-0.942-4.661-1.594-6.362l-2.391-6.237
		c-0.019-0.054-0.042-0.104-0.067-0.157v-9.296l4.508,8.05c0.453,0.811,1.303,1.313,2.218,1.313c0.491,0,0.975-0.145,1.4-0.418
		l0.594-0.384C134.543,91.83,134.959,90.174,134.27,88.917z M94.487,115.354c1.158,0,2.096,0.942,2.096,2.097
		c0,1.156-0.939,2.096-2.096,2.096c-1.154,0-2.095-0.939-2.095-2.096C92.392,116.296,93.333,115.354,94.487,115.354z
		 M70.943,119.546c-1.156,0-2.096-0.939-2.096-2.096c0-1.154,0.94-2.097,2.096-2.097s2.097,0.942,2.097,2.097
		C73.04,118.606,72.1,119.546,70.943,119.546z"/>
	<path fill="#41167F" d="M67.031,105.778h26.393c1.076,0,1.951-0.877,1.951-1.952V85.918c0-1.076-0.877-1.953-1.951-1.953H67.031
		c-1.078,0-1.954,0.877-1.954,1.953v17.908C65.077,104.901,65.954,105.778,67.031,105.778z"/>
</g>
</svg>
