<?xml version="1.0" encoding="utf-8"?>
<!-- Generator: Adobe Illustrator 16.0.0, SVG Export Plug-In . SVG Version: 6.00 Build 0)  -->
<!DOCTYPE svg PUBLIC "-//W3C//DTD SVG 1.1//EN" "http://www.w3.org/Graphics/SVG/1.1/DTD/svg11.dtd">
<svg version="1.1" id="Capa_1" xmlns="http://www.w3.org/2000/svg" xmlns:xlink="http://www.w3.org/1999/xlink" x="0px" y="0px"
	 width="200px" height="200px" viewBox="0 0 200 200" enable-background="new 0 0 200 200" xml:space="preserve">
<g>
	<g>
		<path fill="#E5B92E" d="M190.612,19.877c0,0-3.622,130.363-90.336,179.345c0,0-0.48-201.298-0.082-199.205
			C137.33,65.426,190.612,19.877,190.612,19.877"/>
		<path fill="#FFFFFF" d="M185.03,32.502c0,0-6.894,115.939-85.259,160.096c0,0,0.188-181.188,0.547-179.302
			c41.618,51.833,84.712,16.575,84.712,16.575"/>
		<path fill="#E5B92E" d="M182.249,37.536c0,0-11.398,109.178-81.835,150.64c0,0-0.315-169.853,0.007-168.079
			C139.012,65.428,182.249,37.536,182.249,37.536"/>
		<path fill="#FFDE5E" d="M9.857,19.877c0,0,53.031,45.55,90.337-19.861c0.397-2.092,0.411,199.212,0.411,199.212
			C13.496,150.247,9.857,19.877,9.857,19.877"/>
		<path fill="#FFFFFF" d="M15.063,29.572c2.029,1.654,41.604,38.084,85.253-16.275c0.359-1.886,0.007,179.001,0.007,179.001
			C21.958,148.142,15.063,32.203,15.063,32.203"/>
		<path fill="#FFDE5E" d="M20.055,39.374c0,0,39.845,28.458,80.367-19.276c0.323-1.772,0.12,167.205,0.12,167.205
			C30.104,145.838,20.055,39.374,20.055,39.374"/>
	</g>
	<g>
		<polygon fill="#076751" points="197.23,180.966 154.229,180.966 154.229,142.696 197.23,142.696 184.785,161.83 		"/>
		<polygon fill="#076751" points="3,180.966 46.002,180.966 46.002,142.696 3,142.696 15.443,161.83 		"/>
	</g>
	<path fill="#FFDE5F" d="M100.235,198.897"/>
	<path fill="#FFDE5F" d="M188.681,19.94"/>
	<rect x="34.6" y="129.262" fill="#059A7B" width="130.089" height="42.675"/>
	<g>
		<path fill="#076751" d="M103.506,68.73l-2.9,1.376c-0.555,0.265-1.205,0.265-1.761,0l-2.897-1.376l-0.521,0.159
			c-0.652,0.226-1.089,0.839-1.089,1.531v7.407c1.678,0.627,3.497,0.974,5.391,0.974c1.896,0,3.708-0.347,5.39-0.974V70.42
			c0-0.691-0.437-1.305-1.089-1.531L103.506,68.73z"/>
		<path fill="#076751" d="M99.727,58.957c1.292,0,2.343-1.051,2.343-2.342c0-1.292-1.052-2.344-2.343-2.344
			c-1.289,0-2.343,1.05-2.343,2.344C97.383,57.908,98.437,58.957,99.727,58.957z"/>
		<path fill="#076751" d="M75.521,98.322c-1.295,0-2.343,1.054-2.343,2.344c0,1.293,1.047,2.345,2.343,2.345
			c1.289,0,2.34-1.051,2.34-2.345C77.861,99.375,76.81,98.322,75.521,98.322z"/>
		<path fill="#076751" d="M75.521,92.042c-8.498,0-15.407,6.912-15.407,15.406c0,4.913,2.316,9.294,5.911,12.117v-5.093
			c0-2.471,1.574-4.653,3.917-5.433c0.016-0.006,1.36-0.419,1.36-0.419c0.491-0.15,1.019-0.112,1.481,0.106l2.738,1.302l2.731-1.302
			c0.463-0.22,0.993-0.257,1.485-0.106c0,0,1.344,0.413,1.36,0.419c2.342,0.781,3.916,2.965,3.916,5.433v5.093
			c3.592-2.821,5.911-7.202,5.911-12.117C90.924,98.954,84.013,92.042,75.521,92.042L75.521,92.042z M75.521,107.119
			c-3.561,0-6.453-2.896-6.453-6.453s2.895-6.45,6.453-6.45c3.556,0,6.449,2.893,6.449,6.45S79.077,107.119,75.521,107.119z"/>
		<path fill="#076751" d="M79.814,112.942l-0.518-0.16l-2.897,1.375c-0.557,0.264-1.208,0.264-1.764,0l-2.895-1.375l-0.524,0.16
			c-0.649,0.227-1.086,0.839-1.086,1.53v7.41c1.678,0.626,3.495,0.972,5.388,0.972s3.711-0.346,5.391-0.972v-7.41
			C80.906,113.781,80.469,113.169,79.814,112.942L79.814,112.942z"/>
		<path fill="#076751" d="M90.233,75.513V70.42c0-2.469,1.574-4.653,3.917-5.435c0.016-0.004,1.356-0.418,1.356-0.418
			c0.492-0.15,1.019-0.111,1.484,0.108l2.735,1.3l2.735-1.3c0.462-0.221,0.992-0.258,1.483-0.108c0,0,1.343,0.413,1.359,0.418
			c2.342,0.781,3.917,2.965,3.917,5.435v5.093c3.595-2.822,5.91-7.203,5.91-12.117c0-8.494-6.908-15.405-15.405-15.405
			c-8.495,0-15.407,6.911-15.407,15.405C84.322,68.31,86.638,72.691,90.233,75.513L90.233,75.513z M99.727,50.163
			c3.558,0,6.453,2.893,6.453,6.451s-2.896,6.452-6.453,6.452s-6.449-2.894-6.449-6.452C93.276,53.057,96.168,50.163,99.727,50.163
			L99.727,50.163z"/>
		<path fill="#076751" d="M123.936,92.042c-8.495,0-15.404,6.912-15.404,15.406c0,4.913,2.317,9.294,5.912,12.117v-5.093
			c0-2.471,1.576-4.653,3.917-5.433c0.017-0.006,1.359-0.419,1.359-0.419c0.492-0.15,1.019-0.112,1.481,0.106l2.734,1.302
			l2.734-1.302c0.463-0.22,0.996-0.257,1.485-0.106c0,0,1.342,0.413,1.356,0.419c2.343,0.781,3.92,2.965,3.92,5.433v5.093
			c3.593-2.821,5.908-7.202,5.908-12.117C139.343,98.954,132.428,92.042,123.936,92.042L123.936,92.042z M123.936,107.119
			c-3.559,0-6.452-2.896-6.452-6.453s2.896-6.45,6.452-6.45c3.559,0,6.449,2.893,6.449,6.45S127.494,107.119,123.936,107.119
			L123.936,107.119z"/>
		<path fill="#076751" d="M128.235,112.942l-0.521-0.16l-2.895,1.375c-0.561,0.264-1.209,0.264-1.767,0l-2.895-1.375l-0.521,0.16
			c-0.652,0.227-1.09,0.839-1.09,1.53v7.41c1.678,0.626,3.494,0.972,5.387,0.972c1.896,0,3.712-0.346,5.392-0.972v-7.41
			C129.325,113.781,128.888,113.169,128.235,112.942z"/>
		<path fill="#076751" d="M123.936,98.322c-1.292,0-2.343,1.054-2.343,2.344c0,1.293,1.051,2.345,2.343,2.345
			s2.343-1.051,2.343-2.345C126.281,99.375,125.228,98.322,123.936,98.322z"/>
		<path fill="#076751" d="M101.781,89.269v-6.468c-0.674,0.07-1.36,0.11-2.056,0.11s-1.378-0.038-2.056-0.11v6.468l-8.504,4.252
			c1.004,0.985,1.902,2.075,2.677,3.255l7.882-3.942l7.882,3.942c0.775-1.181,1.669-2.27,2.674-3.255L101.781,89.269L101.781,89.269
			z"/>
	</g>
	<g enable-background="new    ">
		<path fill="#FFFFFF" d="M50.269,134.749v2.502h-3.932v10.538h-2.936v-10.538h-3.932v-2.502H50.269z"/>
		<path fill="#FFFFFF" d="M55.97,134.6c1.957,0,3.456,0.346,4.497,1.044c1.041,0.695,1.561,1.776,1.561,3.246
			c0,0.916-0.209,1.657-0.63,2.229c-0.42,0.569-1.025,1.02-1.815,1.345c0.264,0.327,0.539,0.698,0.828,1.12
			c0.289,0.42,0.574,0.858,0.856,1.317c0.283,0.456,0.555,0.934,0.818,1.43c0.264,0.493,0.509,0.98,0.734,1.458h-3.281
			c-0.24-0.426-0.482-0.86-0.728-1.299c-0.246-0.44-0.498-0.866-0.755-1.279c-0.258-0.414-0.513-0.806-0.765-1.177
			c-0.251-0.37-0.503-0.704-0.755-1.007h-1.449v4.762H52.15v-12.853c0.64-0.123,1.301-0.212,1.985-0.264
			C54.819,134.624,55.43,134.6,55.97,134.6z M56.139,137.102c-0.214,0-0.404,0.006-0.574,0.019c-0.17,0.012-0.329,0.024-0.48,0.036
			v3.537h0.828c1.104,0,1.894-0.138,2.371-0.413c0.476-0.275,0.715-0.744,0.715-1.412c0-0.637-0.242-1.093-0.725-1.362
			C57.792,137.236,57.08,137.102,56.139,137.102z"/>
		<path fill="#FFFFFF" d="M74.03,147.789c-0.146-0.453-0.301-0.919-0.468-1.396s-0.333-0.952-0.499-1.427h-5.093
			c-0.165,0.475-0.329,0.952-0.495,1.43s-0.32,0.943-0.462,1.394h-3.048c0.491-1.405,0.956-2.704,1.396-3.896
			c0.44-1.191,0.871-2.315,1.292-3.368c0.422-1.054,0.836-2.052,1.246-3.002c0.409-0.946,0.833-1.871,1.274-2.774h2.783
			c0.428,0.903,0.851,1.828,1.267,2.774c0.416,0.95,0.834,1.948,1.257,3.002c0.422,1.053,0.854,2.177,1.295,3.368
			s0.907,2.49,1.398,3.896H74.03z M70.504,137.705c-0.066,0.187-0.162,0.446-0.288,0.771c-0.125,0.324-0.27,0.701-0.43,1.13
			c-0.162,0.426-0.342,0.897-0.541,1.412c-0.199,0.511-0.401,1.05-0.607,1.613h3.729c-0.2-0.563-0.393-1.105-0.581-1.62
			c-0.187-0.515-0.364-0.985-0.533-1.415c-0.168-0.425-0.316-0.802-0.442-1.127C70.685,138.143,70.582,137.889,70.504,137.705z"/>
		<path fill="#FFFFFF" d="M83.195,147.958c-0.715,0-1.427-0.021-2.136-0.064c-0.709-0.046-1.446-0.15-2.211-0.313v-12.645
			c0.602-0.11,1.26-0.196,1.976-0.255c0.715-0.055,1.379-0.082,1.995-0.082c0.827,0,1.589,0.058,2.286,0.178
			c0.695,0.119,1.295,0.324,1.796,0.612c0.502,0.288,0.895,0.667,1.176,1.139c0.283,0.469,0.424,1.051,0.424,1.74
			c0,1.041-0.502,1.861-1.505,2.465c0.827,0.313,1.392,0.738,1.693,1.28c0.3,0.539,0.452,1.146,0.452,1.825
			c0,1.365-0.499,2.395-1.496,3.084C86.647,147.611,85.165,147.958,83.195,147.958z M81.708,139.866h1.43
			c0.903,0,1.548-0.116,1.937-0.349c0.389-0.229,0.583-0.604,0.583-1.118c0-0.526-0.201-0.896-0.602-1.111
			c-0.401-0.211-0.991-0.318-1.769-0.318c-0.251,0-0.521,0.003-0.809,0.009c-0.29,0.007-0.547,0.021-0.772,0.046V139.866z
			 M81.708,142.105v3.368c0.213,0.024,0.446,0.043,0.695,0.056c0.251,0.015,0.528,0.021,0.829,0.021
			c0.877,0,1.586-0.126,2.126-0.377c0.539-0.251,0.809-0.717,0.809-1.394c0-0.604-0.225-1.032-0.677-1.289s-1.098-0.386-1.938-0.386
			H81.708z"/>
		<path fill="#FFFFFF" d="M100.053,147.789c-0.146-0.453-0.302-0.919-0.469-1.396s-0.332-0.952-0.498-1.427h-5.093
			c-0.166,0.475-0.331,0.952-0.496,1.43c-0.166,0.478-0.319,0.943-0.461,1.394h-3.049c0.49-1.405,0.956-2.704,1.396-3.896
			c0.439-1.191,0.872-2.315,1.292-3.368c0.421-1.054,0.837-2.052,1.247-3.002c0.409-0.946,0.833-1.871,1.274-2.774h2.782
			c0.429,0.903,0.85,1.828,1.266,2.774c0.415,0.95,0.834,1.948,1.257,3.002c0.423,1.053,0.854,2.177,1.296,3.368
			c0.439,1.191,0.904,2.49,1.398,3.896H100.053z M96.526,137.705c-0.066,0.187-0.161,0.446-0.288,0.771
			c-0.125,0.324-0.27,0.701-0.43,1.13c-0.161,0.426-0.341,0.897-0.541,1.412c-0.199,0.511-0.401,1.05-0.606,1.613h3.729
			c-0.201-0.563-0.394-1.105-0.581-1.62c-0.187-0.515-0.364-0.985-0.533-1.415c-0.168-0.425-0.315-0.802-0.442-1.127
			C96.707,138.143,96.604,137.889,96.526,137.705z"/>
		<path fill="#FFFFFF" d="M112.623,143.403c0,0.641-0.073,1.244-0.218,1.808c-0.144,0.563-0.395,1.057-0.753,1.476
			c-0.355,0.423-0.839,0.754-1.448,0.998c-0.606,0.245-1.375,0.368-2.304,0.368c-0.854,0-1.589-0.104-2.201-0.313
			c-0.616-0.205-1.124-0.447-1.525-0.723l0.979-2.278c0.361,0.214,0.751,0.404,1.167,0.566c0.414,0.162,0.864,0.245,1.354,0.245
			c0.714,0,1.229-0.178,1.544-0.527c0.313-0.352,0.469-0.943,0.469-1.77v-8.505h2.937V143.403z"/>
		<path fill="#FFFFFF" d="M127.861,141.26c0,1.115-0.165,2.098-0.499,2.943c-0.331,0.849-0.787,1.556-1.362,2.128
			c-0.576,0.57-1.266,0.999-2.062,1.286c-0.796,0.291-1.65,0.436-2.566,0.436c-0.891,0-1.733-0.145-2.523-0.436
			c-0.79-0.287-1.479-0.716-2.07-1.286c-0.588-0.572-1.053-1.279-1.39-2.128c-0.34-0.846-0.509-1.828-0.509-2.943
			c0-1.117,0.175-2.098,0.526-2.945c0.353-0.846,0.824-1.56,1.422-2.135c0.594-0.576,1.286-1.011,2.069-1.299
			c0.784-0.288,1.608-0.432,2.475-0.432c0.889,0,1.73,0.144,2.521,0.432s1.479,0.723,2.07,1.299
			c0.588,0.575,1.054,1.289,1.391,2.135C127.693,139.162,127.861,140.143,127.861,141.26z M117.909,141.26
			c0,0.641,0.079,1.216,0.235,1.73s0.383,0.955,0.677,1.326c0.294,0.37,0.655,0.655,1.081,0.857c0.429,0.199,0.916,0.3,1.47,0.3
			c0.539,0,1.023-0.101,1.458-0.3c0.432-0.202,0.796-0.487,1.09-0.857c0.294-0.371,0.521-0.812,0.677-1.326s0.236-1.09,0.236-1.73
			c0-0.64-0.08-1.222-0.236-1.742c-0.156-0.518-0.383-0.965-0.677-1.335c-0.294-0.371-0.658-0.655-1.09-0.854
			c-0.435-0.202-0.919-0.304-1.458-0.304c-0.554,0-1.041,0.104-1.47,0.313c-0.426,0.205-0.787,0.496-1.081,0.864
			c-0.294,0.37-0.521,0.817-0.677,1.338S117.909,140.632,117.909,141.26z"/>
		<path fill="#FFFFFF" d="M134.825,147.789v-13.04h8.805v2.466h-5.87v2.557h5.212v2.41h-5.212v3.143h6.302v2.465H134.825z"/>
		<path fill="#FFFFFF" d="M154.977,147.789c-0.843-1.494-1.752-2.968-2.729-4.422c-0.98-1.455-2.021-2.83-3.124-4.122v8.544h-2.897
			v-13.04h2.389c0.414,0.414,0.873,0.922,1.375,1.525c0.5,0.601,1.011,1.243,1.531,1.927c0.521,0.686,1.038,1.393,1.553,2.128
			c0.515,0.731,0.999,1.439,1.448,2.116v-7.696h2.919v13.04H154.977z"/>
	</g>
	<g enable-background="new    ">
		<path fill="#FFFFFF" d="M62.795,166.997v-13.04h8.806v2.465H65.73v2.558h5.211v2.41H65.73v3.142h6.303v2.466H62.795z"/>
		<path fill="#FFFFFF" d="M86.277,160.468c0,0.915-0.112,1.739-0.338,2.475c-0.226,0.731-0.542,1.375-0.95,1.926
			c-0.408,0.555-0.894,1.011-1.458,1.375c-0.564,0.364-1.186,0.628-1.863,0.79c0.063,0.251,0.2,0.453,0.414,0.612
			c0.213,0.156,0.482,0.285,0.809,0.386c0.326,0.099,0.705,0.175,1.138,0.224c0.434,0.053,0.9,0.096,1.402,0.132l-0.602,2.146
			c-0.979-0.036-1.816-0.134-2.512-0.29c-0.696-0.159-1.286-0.374-1.769-0.649c-0.483-0.279-0.866-0.616-1.147-1.017
			c-0.283-0.401-0.499-0.867-0.649-1.394c-0.778-0.102-1.499-0.315-2.164-0.649c-0.665-0.331-1.242-0.781-1.731-1.345
			s-0.872-1.243-1.148-2.033c-0.275-0.79-0.413-1.685-0.413-2.688c0-1.118,0.175-2.098,0.526-2.946
			c0.351-0.846,0.825-1.559,1.42-2.135c0.596-0.575,1.286-1.011,2.07-1.298c0.784-0.288,1.608-0.433,2.474-0.433
			c0.891,0,1.731,0.145,2.521,0.433c0.791,0.287,1.48,0.723,2.07,1.298c0.589,0.576,1.053,1.289,1.393,2.135
			C86.108,158.37,86.277,159.35,86.277,160.468z M76.324,160.468c0,0.64,0.078,1.216,0.235,1.73
			c0.156,0.514,0.382,0.955,0.677,1.325c0.295,0.371,0.656,0.655,1.083,0.857c0.426,0.199,0.915,0.301,1.468,0.301
			c0.539,0,1.025-0.102,1.458-0.301c0.432-0.202,0.796-0.486,1.092-0.857c0.294-0.37,0.52-0.812,0.677-1.325
			c0.157-0.515,0.235-1.091,0.235-1.73c0-0.641-0.079-1.222-0.235-1.743c-0.157-0.518-0.383-0.964-0.677-1.335
			c-0.296-0.37-0.66-0.655-1.092-0.854c-0.433-0.202-0.919-0.303-1.458-0.303c-0.553,0-1.042,0.104-1.468,0.313
			c-0.427,0.205-0.788,0.496-1.083,0.863c-0.294,0.37-0.521,0.817-0.677,1.338C76.402,159.267,76.324,159.84,76.324,160.468z"/>
		<path fill="#FFFFFF" d="M93.822,167.26c-0.916,0-1.706-0.129-2.371-0.386c-0.665-0.257-1.214-0.615-1.647-1.071
			c-0.432-0.46-0.752-1.005-0.959-1.639c-0.208-0.634-0.311-1.332-0.311-2.098v-8.109h2.936v7.864c0,0.526,0.06,0.977,0.179,1.344
			c0.119,0.371,0.282,0.674,0.489,0.904c0.207,0.232,0.458,0.397,0.752,0.499c0.294,0.101,0.617,0.149,0.968,0.149
			c0.715,0,1.295-0.217,1.741-0.658c0.445-0.438,0.667-1.185,0.667-2.238v-7.864h2.936v8.109c0,0.766-0.106,1.467-0.32,2.106
			c-0.213,0.641-0.54,1.188-0.979,1.647c-0.439,0.457-0.997,0.812-1.674,1.063C95.553,167.135,94.75,167.26,93.822,167.26z"/>
		<path fill="#FFFFFF" d="M102.023,153.957h2.938v13.04h-2.938V153.957z"/>
		<path fill="#FFFFFF" d="M111.885,153.807c1.944,0,3.437,0.34,4.478,1.026c1.041,0.683,1.562,1.804,1.562,3.356
			c0,1.567-0.526,2.701-1.58,3.396c-1.054,0.698-2.561,1.045-4.517,1.045h-0.922v4.367h-2.935v-12.854
			c0.641-0.122,1.317-0.211,2.031-0.264C110.718,153.831,111.346,153.807,111.885,153.807z M112.071,156.309
			c-0.214,0-0.422,0.006-0.631,0.019c-0.205,0.013-0.386,0.024-0.535,0.037v3.764h0.922c1.017,0,1.782-0.138,2.297-0.414
			c0.514-0.275,0.771-0.79,0.771-1.543c0-0.364-0.067-0.665-0.199-0.903c-0.132-0.236-0.318-0.429-0.563-0.573
			c-0.245-0.144-0.542-0.245-0.895-0.3C112.887,156.336,112.497,156.309,112.071,156.309z"/>
		<path fill="#FFFFFF" d="M132.507,160.468c0,1.114-0.168,2.098-0.499,2.942c-0.334,0.849-0.787,1.556-1.362,2.129
			c-0.579,0.569-1.265,0.998-2.062,1.286c-0.796,0.291-1.653,0.435-2.569,0.435c-0.891,0-1.73-0.144-2.521-0.435
			c-0.79-0.288-1.481-0.717-2.069-1.286c-0.592-0.573-1.054-1.28-1.394-2.129c-0.337-0.845-0.509-1.828-0.509-2.942
			c0-1.118,0.178-2.098,0.527-2.946c0.352-0.846,0.826-1.559,1.421-2.135c0.597-0.575,1.286-1.011,2.069-1.298
			c0.784-0.288,1.611-0.433,2.475-0.433c0.892,0,1.73,0.145,2.521,0.433c0.79,0.287,1.482,0.723,2.07,1.298
			c0.591,0.576,1.054,1.289,1.394,2.135C132.339,158.37,132.507,159.35,132.507,160.468z M122.555,160.468
			c0,0.64,0.076,1.216,0.232,1.73c0.159,0.514,0.383,0.955,0.68,1.325c0.294,0.371,0.655,0.655,1.081,0.857
			c0.426,0.199,0.916,0.301,1.467,0.301c0.539,0,1.026-0.102,1.458-0.301c0.435-0.202,0.796-0.486,1.093-0.857
			c0.295-0.37,0.521-0.812,0.678-1.325c0.155-0.515,0.235-1.091,0.235-1.73c0-0.641-0.08-1.222-0.235-1.743
			c-0.156-0.518-0.383-0.964-0.678-1.335c-0.297-0.37-0.658-0.655-1.093-0.854c-0.432-0.202-0.919-0.303-1.458-0.303
			c-0.551,0-1.041,0.104-1.467,0.313c-0.426,0.205-0.787,0.496-1.081,0.863c-0.297,0.37-0.521,0.817-0.68,1.338
			C122.631,159.267,122.555,159.84,122.555,160.468z"/>
	</g>
</g>
</svg>
