<?xml version="1.0" encoding="utf-8"?>
<!-- Generator: Adobe Illustrator 16.0.0, SVG Export Plug-In . SVG Version: 6.00 Build 0)  -->
<!DOCTYPE svg PUBLIC "-//W3C//DTD SVG 1.1//EN" "http://www.w3.org/Graphics/SVG/1.1/DTD/svg11.dtd">
<svg version="1.1" id="Capa_1" xmlns="http://www.w3.org/2000/svg" xmlns:xlink="http://www.w3.org/1999/xlink" x="0px" y="0px"
	 width="200px" height="200px" viewBox="0 0 200 200" enable-background="new 0 0 200 200" xml:space="preserve">
<polygon fill="#006633" points="76.284,69.672 21.719,124.237 57.772,132.306 65.841,168.359 120.407,113.794 "/>
<polygon fill="#006633" points="91.704,111.794 146.27,166.359 154.338,130.306 190.392,122.237 135.826,67.671 "/>
<polygon fill="#2FAC66" points="175.9,71.692 164.013,87.222 166.552,106.617 148.476,114.101 140.991,132.177 121.598,129.637 
	106.067,141.525 90.537,129.637 71.143,132.176 63.66,114.1 45.583,106.617 48.122,87.222 36.235,71.692 48.122,56.162 
	45.583,36.767 63.66,29.284 71.143,11.207 90.537,13.747 106.067,1.859 121.598,13.747 140.992,11.207 148.476,29.284 
	166.552,36.767 164.013,56.162 "/>
<circle fill="#006633" cx="106.065" cy="71.693" r="42.57"/>
<text transform="matrix(1 0 0 1 89.4185 92.5898)" fill="#F6F6F6" font-family="'Ubuntu-Bold'" font-size="60">5</text>
</svg>
