<?xml version="1.0" encoding="utf-8"?>
<!-- Generator: Adobe Illustrator 16.0.0, SVG Export Plug-In . SVG Version: 6.00 Build 0)  -->
<!DOCTYPE svg PUBLIC "-//W3C//DTD SVG 1.1//EN" "http://www.w3.org/Graphics/SVG/1.1/DTD/svg11.dtd">
<svg version="1.1" id="Capa_1" xmlns="http://www.w3.org/2000/svg" xmlns:xlink="http://www.w3.org/1999/xlink" x="0px" y="0px"
	 width="200px" height="200px" viewBox="0 0 200 200" enable-background="new 0 0 200 200" xml:space="preserve">
<circle fill="#14474B" cx="99.211" cy="85.248" r="60.606"/>
<g>
	<path fill="#219198" d="M110.438,74.164c0.211,0,0.42,0.105,0.629,0.21c-0.104,0-0.313-0.105-0.418-0.105
		c-0.521,0-1.049,0.419-1.049,1.047l-0.313,3.352v-3.352C109.287,74.688,109.811,74.164,110.438,74.164z"/>
	<path fill="#219198" d="M138.197,75.525V92.18c0,1.154-1.049,2.096-2.305,1.886c-0.941-0.105-1.572-0.942-1.68-1.78l-1.568-17.074
		c0-0.524-0.521-1.048-1.049-1.048c-0.63,0-1.15,0.524-1.15,1.152v50.282c0,1.359-1.049,2.723-2.408,2.826
		c-1.571,0.211-2.828-0.941-3.039-2.408L122.38,99.62c-0.104-0.628-0.522-1.048-1.153-1.048c-0.625,0-1.148,0.523-1.148,1.152
		l-2.307,26.292c-0.104,1.359-1.359,2.514-2.723,2.514h-0.523c-1.467,0-2.726-1.256-2.726-2.723V76.573l1.571,17.074
		c0.105,0.942,0.839,1.78,1.781,1.99c1.363,0.211,2.408-0.838,2.408-2.095V75.525c0-5.552-2.408-10.475-6.285-13.932
		c2.619-1.885,5.867-3.038,9.324-3.143C130.34,58.137,138.197,65.888,138.197,75.525z"/>
	<circle fill="#219198" cx="121.124" cy="47.871" r="7.961"/>
</g>
<g>
	<path fill="#219198" d="M80.585,75.839v17.703c0,1.152,0.942,2.095,2.095,2.095l0,0c1.048,0,1.991-0.838,2.096-1.885l1.57-17.283
		v49.128c0,1.357-1.047,2.723-2.409,2.824c-1.466,0.21-2.827-0.939-3.037-2.406l-2.724-26.396c-0.104-0.628-0.628-1.048-1.152-1.048
		c-0.628,0-1.152,0.419-1.152,1.048l-2.2,26.396c-0.104,1.357-1.361,2.514-2.723,2.514h-0.523c-1.467,0-2.724-1.256-2.724-2.723
		V75.316c0-0.628-0.523-1.152-1.152-1.152c-0.524,0-1.048,0.419-1.048,1.048l-1.675,17.074c-0.104,1.048-0.943,1.78-1.885,1.78l0,0
		c-1.048,0-1.991-0.836-1.991-1.991V75.839c0-9.323,7.333-17.179,16.551-17.388c3.876-0.104,7.437,1.047,10.369,3.143
		C82.994,65.05,80.585,70.183,80.585,75.839z"/>
	<path fill="#219198" d="M66.549,74.269c-0.419,0-0.733,0.209-0.943,0.523C65.71,74.478,66.025,74.164,66.549,74.269
		C66.443,74.164,66.443,74.164,66.549,74.269z"/>
	<path fill="#219198" d="M88.86,75.316v3.352l-0.313-3.457c0-0.524-0.524-1.048-1.048-1.048c-0.105,0-0.314,0-0.419,0.105
		c0.209-0.105,0.419-0.209,0.628-0.209C88.336,74.164,88.86,74.688,88.86,75.316z"/>
	<circle fill="#219198" cx="77.023" cy="47.871" r="7.961"/>
</g>
<g>
	<path fill="#FFFFFF" d="M98.603,56.985c-10.056,0.314-18.018,8.798-18.018,18.959v17.703c0,1.152,0.942,2.096,2.095,2.096l0,0
		c1.048,0,1.991-0.838,2.096-1.886l1.781-18.541c0.104-0.628,0.523-1.047,1.151-1.047s1.152,0.523,1.152,1.152v54.782
		c0,1.678,1.361,2.936,2.933,2.936h0.629c1.571,0,2.828-1.152,2.933-2.725l2.409-28.699c0.105-0.63,0.629-1.154,1.258-1.154
		c0.628,0,1.257,0.524,1.257,1.154l2.934,28.805c0.208,1.572,1.676,2.828,3.246,2.619c1.57-0.211,2.618-1.572,2.618-3.145V75.316
		c0-0.628,0.522-1.152,1.153-1.152c0.629,0,1.149,0.419,1.149,1.048l1.781,18.541c0.104,0.942,0.837,1.781,1.778,1.991
		c1.361,0.208,2.408-0.838,2.408-2.096V75.525C117.668,65.05,109.076,56.67,98.603,56.985z"/>
	<path fill="#FFFFFF" d="M87.08,74.269c-0.314,0.209-0.523,0.523-0.523,0.943l-0.211,1.257v-1.153
		C86.346,74.897,86.66,74.478,87.08,74.269z"/>
	<circle fill="#FFFFFF" cx="99.125" cy="45.567" r="8.694"/>
</g>
<path fill="#0A7A35" d="M65.72,117.707"/>
<path fill="#0A7A35" d="M38.293,117.707"/>
<line fill="none" x1="156.425" y1="103.633" x2="64.377" y2="103.633"/>
<polygon fill="#14474B" points="181.197,169.211 143.223,169.211 143.223,135.416 181.197,135.416 170.208,152.313 "/>
<polygon fill="#14474B" points="33.015,152.311 22.025,135.416 60,135.416 60,169.21 22.025,169.21 "/>
<rect x="41.689" y="118.52" fill="#FFFFFF" width="114.874" height="33.793"/>
<g enable-background="new    ">
	<path fill="#14474B" d="M53.318,142.93c-1.872,0-3.298-0.52-4.278-1.561c-0.98-1.041-1.471-2.52-1.471-4.438
		c0-0.951,0.15-1.803,0.449-2.549c0.299-0.748,0.709-1.379,1.229-1.895s1.141-0.906,1.861-1.172c0.72-0.266,1.501-0.398,2.343-0.398
		c0.487,0,0.93,0.035,1.329,0.107s0.748,0.156,1.047,0.25c0.299,0.094,0.548,0.191,0.748,0.291s0.343,0.178,0.432,0.232
		l-0.748,2.094c-0.354-0.189-0.767-0.35-1.238-0.482s-1.005-0.199-1.603-0.199c-0.399,0-0.789,0.066-1.171,0.199
		s-0.72,0.346-1.014,0.639c-0.293,0.295-0.529,0.674-0.706,1.139s-0.266,1.031-0.266,1.695c0,0.531,0.058,1.027,0.174,1.486
		c0.116,0.461,0.305,0.855,0.565,1.188c0.26,0.334,0.601,0.596,1.022,0.791c0.42,0.193,0.93,0.289,1.528,0.289
		c0.376,0,0.714-0.021,1.014-0.066c0.299-0.043,0.565-0.096,0.797-0.156c0.232-0.063,0.438-0.131,0.615-0.209
		c0.177-0.076,0.338-0.148,0.482-0.215l0.714,2.076c-0.366,0.223-0.881,0.422-1.545,0.598
		C54.963,142.842,54.193,142.93,53.318,142.93z"/>
	<path fill="#14474B" d="M69.385,136.932c0,0.986-0.147,1.854-0.44,2.602s-0.695,1.373-1.205,1.877s-1.116,0.883-1.819,1.139
		c-0.704,0.254-1.459,0.381-2.268,0.381c-0.787,0-1.529-0.127-2.227-0.381c-0.698-0.256-1.307-0.635-1.828-1.139
		s-0.93-1.129-1.229-1.877c-0.299-0.748-0.449-1.615-0.449-2.602c0-0.984,0.155-1.852,0.465-2.6s0.728-1.375,1.254-1.885
		c0.526-0.51,1.135-0.893,1.828-1.146c0.692-0.256,1.42-0.383,2.185-0.383c0.786,0,1.528,0.127,2.226,0.383
		c0.698,0.254,1.307,0.637,1.828,1.146s0.931,1.137,1.229,1.885C69.235,135.08,69.385,135.947,69.385,136.932z M60.596,136.932
		c0,0.566,0.069,1.076,0.208,1.529c0.138,0.455,0.338,0.846,0.598,1.172s0.579,0.578,0.956,0.756
		c0.376,0.178,0.808,0.266,1.296,0.266c0.476,0,0.905-0.088,1.288-0.266c0.382-0.178,0.703-0.43,0.963-0.756
		s0.459-0.717,0.598-1.172c0.139-0.453,0.208-0.963,0.208-1.529c0-0.564-0.069-1.076-0.208-1.535
		c-0.139-0.461-0.338-0.854-0.598-1.18c-0.26-0.328-0.582-0.58-0.963-0.756c-0.382-0.178-0.812-0.268-1.288-0.268
		c-0.488,0-0.92,0.092-1.296,0.275c-0.377,0.182-0.695,0.438-0.956,0.764s-0.46,0.721-0.598,1.18
		C60.665,135.871,60.596,136.379,60.596,136.932z"/>
	<path fill="#14474B" d="M74.602,131.184c0.199,0.365,0.43,0.816,0.69,1.354c0.262,0.539,0.533,1.119,0.816,1.746
		c0.283,0.625,0.563,1.266,0.842,1.918c0.277,0.654,0.538,1.27,0.783,1.844c0.244-0.574,0.505-1.189,0.782-1.844
		c0.278-0.652,0.559-1.293,0.842-1.918c0.283-0.627,0.555-1.207,0.816-1.746c0.261-0.537,0.491-0.988,0.691-1.354h2.359
		c0.11,0.764,0.213,1.619,0.307,2.566c0.095,0.947,0.178,1.934,0.249,2.959c0.072,1.023,0.139,2.051,0.2,3.082
		c0.061,1.029,0.113,1.998,0.157,2.906h-2.525c-0.033-1.117-0.077-2.336-0.133-3.654s-0.139-2.648-0.249-3.988
		c-0.2,0.465-0.423,0.98-0.667,1.545c-0.244,0.566-0.486,1.131-0.725,1.695c-0.239,0.564-0.47,1.105-0.691,1.619
		c-0.223,0.516-0.411,0.957-0.567,1.322H76.77c-0.156-0.365-0.345-0.807-0.567-1.322c-0.222-0.514-0.452-1.055-0.691-1.619
		s-0.48-1.129-0.725-1.695c-0.245-0.564-0.467-1.08-0.667-1.545c-0.11,1.34-0.193,2.67-0.249,3.988s-0.1,2.537-0.133,3.654h-2.525
		c0.044-0.908,0.097-1.877,0.158-2.906c0.061-1.031,0.127-2.059,0.199-3.082c0.072-1.025,0.155-2.012,0.25-2.959
		c0.094-0.947,0.196-1.803,0.307-2.566H74.602z"/>
	<path fill="#14474B" d="M90.951,142.93c-0.809,0-1.507-0.113-2.094-0.34s-1.071-0.543-1.454-0.947
		c-0.382-0.404-0.664-0.887-0.847-1.445s-0.274-1.178-0.274-1.854v-7.16h2.592v6.945c0,0.465,0.053,0.861,0.158,1.188
		c0.104,0.326,0.249,0.594,0.432,0.797c0.183,0.205,0.404,0.354,0.665,0.441c0.26,0.088,0.545,0.133,0.855,0.133
		c0.631,0,1.144-0.193,1.536-0.582c0.394-0.387,0.59-1.047,0.59-1.977v-6.945h2.593v7.16c0,0.676-0.095,1.297-0.283,1.861
		s-0.476,1.051-0.863,1.455c-0.389,0.404-0.881,0.717-1.479,0.938C92.479,142.82,91.77,142.93,90.951,142.93z"/>
	<path fill="#14474B" d="M105.92,142.697c-0.742-1.318-1.545-2.619-2.41-3.904c-0.863-1.285-1.783-2.498-2.758-3.639v7.543h-2.558
		v-11.514h2.11c0.366,0.365,0.77,0.814,1.213,1.346c0.441,0.531,0.895,1.1,1.354,1.703s0.916,1.23,1.371,1.877
		c0.453,0.648,0.881,1.271,1.279,1.869v-6.795h2.574v11.514H105.92z"/>
	<path fill="#14474B" d="M110.754,131.184h2.592v11.514h-2.592V131.184z"/>
	<path fill="#14474B" d="M126.09,136.932c0,0.998-0.156,1.867-0.465,2.609c-0.311,0.742-0.752,1.357-1.322,1.844
		c-0.57,0.488-1.266,0.854-2.084,1.098c-0.82,0.242-1.74,0.365-2.758,0.365c-0.467,0-1.008-0.02-1.629-0.059
		s-1.229-0.119-1.828-0.24v-11.215c0.6-0.111,1.223-0.186,1.869-0.225c0.648-0.039,1.205-0.059,1.67-0.059
		c0.986,0,1.881,0.111,2.684,0.332c0.803,0.223,1.492,0.57,2.068,1.047s1.02,1.086,1.33,1.828
		C125.934,135,126.09,135.891,126.09,136.932z M118.596,140.588c0.123,0.012,0.264,0.02,0.424,0.025s0.352,0.008,0.574,0.008
		c1.295,0,2.256-0.326,2.883-0.98c0.625-0.654,0.938-1.557,0.938-2.709c0-1.207-0.299-2.121-0.896-2.74
		c-0.598-0.621-1.545-0.932-2.842-0.932c-0.178,0-0.359,0.004-0.547,0.01c-0.189,0.006-0.367,0.02-0.533,0.041V140.588z"/>
	<path fill="#14474B" d="M135.559,142.697c-0.127-0.4-0.266-0.811-0.412-1.232c-0.148-0.422-0.295-0.842-0.441-1.26h-4.496
		c-0.146,0.42-0.291,0.842-0.438,1.264s-0.283,0.832-0.408,1.229h-2.691c0.434-1.24,0.844-2.387,1.232-3.439
		c0.389-1.051,0.77-2.043,1.143-2.973c0.371-0.932,0.738-1.814,1.1-2.65s0.736-1.654,1.125-2.451h2.457
		c0.377,0.797,0.75,1.615,1.117,2.451s0.738,1.719,1.111,2.65c0.373,0.93,0.754,1.922,1.143,2.973
		c0.389,1.053,0.801,2.199,1.236,3.439H135.559z M132.445,133.793c-0.059,0.166-0.143,0.395-0.254,0.682s-0.238,0.621-0.381,0.998
		s-0.301,0.793-0.477,1.246s-0.355,0.93-0.535,1.426h3.291c-0.176-0.498-0.346-0.975-0.512-1.43
		c-0.164-0.455-0.322-0.871-0.471-1.25c-0.148-0.377-0.279-0.709-0.391-0.996S132.514,133.955,132.445,133.793z"/>
	<path fill="#14474B" d="M149.898,136.932c0,0.998-0.154,1.867-0.465,2.609s-0.75,1.357-1.32,1.844
		c-0.57,0.488-1.266,0.854-2.086,1.098c-0.818,0.242-1.738,0.365-2.758,0.365c-0.465,0-1.008-0.02-1.627-0.059
		c-0.621-0.039-1.23-0.119-1.828-0.24v-11.215c0.598-0.111,1.221-0.186,1.869-0.225s1.205-0.059,1.67-0.059
		c0.984,0,1.879,0.111,2.684,0.332c0.803,0.223,1.492,0.57,2.068,1.047c0.574,0.477,1.018,1.086,1.328,1.828
		S149.898,135.891,149.898,136.932z M142.406,140.588c0.121,0.012,0.262,0.02,0.424,0.025c0.16,0.006,0.352,0.008,0.572,0.008
		c1.297,0,2.258-0.326,2.883-0.98s0.939-1.557,0.939-2.709c0-1.207-0.299-2.121-0.898-2.74c-0.598-0.621-1.545-0.932-2.84-0.932
		c-0.178,0-0.361,0.004-0.549,0.01s-0.365,0.02-0.531,0.041V140.588z"/>
</g>
</svg>
