<?xml version="1.0" encoding="utf-8"?>
<!-- Generator: Adobe Illustrator 16.0.0, SVG Export Plug-In . SVG Version: 6.00 Build 0)  -->
<!DOCTYPE svg PUBLIC "-//W3C//DTD SVG 1.1//EN" "http://www.w3.org/Graphics/SVG/1.1/DTD/svg11.dtd">
<svg version="1.1" id="Capa_1" xmlns="http://www.w3.org/2000/svg" xmlns:xlink="http://www.w3.org/1999/xlink" x="0px" y="0px"
	 width="200px" height="200px" viewBox="0 0 200 200" enable-background="new 0 0 200 200" xml:space="preserve">
<circle fill="#14474B" cx="99.211" cy="85.248" r="60.606"/>
<path fill="#0A7A35" d="M65.72,117.707"/>
<path fill="#0A7A35" d="M38.293,117.707"/>
<line fill="none" x1="156.425" y1="103.633" x2="64.377" y2="103.633"/>
<polygon fill="#14474B" points="181.197,169.211 143.223,169.211 143.223,135.416 181.197,135.416 170.208,152.313 "/>
<polygon fill="#14474B" points="33.015,152.311 22.025,135.416 60,135.416 60,169.21 22.025,169.21 "/>
<rect x="41.689" y="118.52" fill="#219198" width="114.874" height="33.793"/>
<text transform="matrix(1 0 0 1 60 142.6973)" fill="#FFFFFF" font-family="'Ubuntu-Bold'" font-size="16.6147">EMPRESA</text>
<path fill="#239097" d="M100.572,60.267h7.055V68.2h4.659V41.481c0-1.844-1.496-3.34-3.34-3.34H75.995
	c-1.845,0-3.34,1.496-3.34,3.34v67.793c0,1.843,1.496,3.339,3.34,3.339h11.854V90.907h9.186V72.744c0-1.977,1.451-3.613,3.538-4.254
	V60.267z M100.572,44.821h7.055V54.84h-7.055V44.821z M84.487,101.151h-7.056V91.132h7.056V101.151z M84.487,86.482h-7.056V76.463
	h7.056V86.482z M84.487,70.287h-7.056v-10.02h7.056V70.287z M84.487,54.84h-7.056V44.821h7.056V54.84z M96.253,86.482h-7.055V76.463
	h7.055V86.482z M96.253,70.287h-7.055v-10.02h7.055V70.287z M96.253,54.84h-7.055V44.821h7.055V54.84z M131.046,70.869h-27.91
	c-1.562,0-2.828,0.839-2.828,1.875v37.999c0,1.036,1.267,1.87,2.828,1.87h10.041V100.45h8.065v12.163h9.804
	c1.562,0,2.827-0.834,2.827-1.87V72.744C133.873,71.708,132.607,70.869,131.046,70.869L131.046,70.869z M110.327,106.189h-5.975
	v-5.614h5.975V106.189z M110.327,97.966h-5.975v-5.616h5.975V97.966z M110.327,88.888h-5.975v-5.612h5.975V88.888z M110.327,80.23
	h-5.975v-5.616h5.975V80.23z M120.298,97.966h-5.974v-5.616h5.974V97.966z M120.298,88.888h-5.974v-5.612h5.974V88.888z
	 M120.344,80.238l-6.02-0.008v-5.616h5.974L120.344,80.238z M129.929,106.314h-5.973v-5.617h5.973V106.314z M129.929,97.966h-5.973
	v-5.616h5.973V97.966z M129.929,88.888h-5.973v-5.612h5.973V88.888z M129.929,80.23h-5.973v-5.616h5.973V80.23z M129.929,80.23"/>
<path fill="#FFFFFF" d="M131.046,70.869h-27.91c-1.562,0-2.828,0.839-2.828,1.875v37.999c0,1.036,1.267,1.87,2.828,1.87h10.041
	V100.45h8.065v12.163h9.804c1.562,0,2.827-0.834,2.827-1.87V72.744C133.873,71.708,132.607,70.869,131.046,70.869L131.046,70.869z
	 M110.327,106.189h-5.975v-5.614h5.975V106.189z M110.327,97.967h-5.975v-5.616h5.975V97.967z M110.327,88.888h-5.975v-5.612h5.975
	V88.888z M110.327,80.23h-5.975v-5.616h5.975V80.23z M120.298,97.967h-5.974v-5.616h5.974V97.967z M120.298,88.888h-5.974v-5.612
	h5.974V88.888z M120.344,80.238l-6.02-0.008v-5.616h5.974L120.344,80.238z M129.929,106.314h-5.973v-5.617h5.973V106.314z
	 M129.929,97.967h-5.973v-5.616h5.973V97.967z M129.929,88.888h-5.973v-5.612h5.973V88.888z M129.929,80.23h-5.973v-5.616h5.973
	V80.23z M129.929,80.23"/>
</svg>
