<?xml version="1.0" encoding="utf-8"?>
<!-- Generator: Adobe Illustrator 16.0.0, SVG Export Plug-In . SVG Version: 6.00 Build 0)  -->
<!DOCTYPE svg PUBLIC "-//W3C//DTD SVG 1.1//EN" "http://www.w3.org/Graphics/SVG/1.1/DTD/svg11.dtd">
<svg version="1.1" id="Capa_1" xmlns="http://www.w3.org/2000/svg" xmlns:xlink="http://www.w3.org/1999/xlink" x="0px" y="0px"
	 width="981.9px" height="981.902px" viewBox="0 0 981.9 981.902" enable-background="new 0 0 981.9 981.902" xml:space="preserve">
<g>
	<path fill="#FFFFFF" d="M861,863.05c0-30.4-24.6-55-55-55H175.9c-30.4,0-55,24.6-55,55s24.6,55,55,55H806
		C836.4,918.05,861,893.349,861,863.05z"/>
	<path fill="#FFFFFF" d="M65.4,417.85c0.9,0,1.7,0,2.6-0.1l87.2,315.599H491h335.7l87.2-315.599c0.898,0,1.698,0.1,2.6,0.1
		c36.1,0,65.4-29.3,65.4-65.4c0-36.1-29.302-65.4-65.4-65.4s-65.4,29.3-65.4,65.4c0,7,1.102,13.8,3.2,20.1l-157.7,92.2l-169.5-281
		c17.602-11.7,29.302-31.8,29.302-54.5c0-36.1-29.302-65.4-65.4-65.4s-65.4,29.3-65.4,65.4c0,22.8,11.602,42.8,29.302,54.5
		l-169.5,281l-157.7-92.2c2-6.3,3.2-13.1,3.2-20.1c0-36.1-29.3-65.4-65.4-65.4c-36.2,0-65.5,29.3-65.5,65.4
		C0.002,388.55,29.3,417.85,65.4,417.85z"/>
</g>
</svg>
