<?xml version="1.0" encoding="utf-8"?>
<!-- Generator: Adobe Illustrator 16.0.0, SVG Export Plug-In . SVG Version: 6.00 Build 0)  -->
<!DOCTYPE svg PUBLIC "-//W3C//DTD SVG 1.1//EN" "http://www.w3.org/Graphics/SVG/1.1/DTD/svg11.dtd">
<svg version="1.1" id="Layer_1" xmlns="http://www.w3.org/2000/svg" xmlns:xlink="http://www.w3.org/1999/xlink" x="0px" y="0px"
	 width="200px" height="200px" viewBox="0 0 200 200" enable-background="new 0 0 200 200" xml:space="preserve">
<path id="XMLID_225_" fill="#FFFFFF" d="M100,87.916c24.238,0,43.958-19.719,43.958-43.958C143.958,19.719,124.238,0,100,0
	C85.224,0,72.138,7.336,64.164,18.549c-5.106,7.18-8.122,15.947-8.122,25.409s3.016,18.229,8.122,25.409
	C72.138,80.579,85.225,87.916,100,87.916z"/>
<path id="XMLID_226_" fill="#FFFFFF" d="M180.561,189.492c0-44.422-36.139-80.561-80.561-80.561c-6.055,0-11.953,0.676-17.628,1.947
	c-26.705,5.984-48.441,25.266-57.868,50.503c-3.271,8.757-5.064,18.228-5.064,28.109c0,5.803,4.705,10.508,10.508,10.508h140.104
	C175.855,200,180.561,195.295,180.561,189.492z"/>
</svg>
