<?xml version="1.0" encoding="utf-8"?>
<!-- Generator: Adobe Illustrator 16.0.0, SVG Export Plug-In . SVG Version: 6.00 Build 0)  -->
<!DOCTYPE svg PUBLIC "-//W3C//DTD SVG 1.1//EN" "http://www.w3.org/Graphics/SVG/1.1/DTD/svg11.dtd">
<svg version="1.1" id="Capa_1" xmlns="http://www.w3.org/2000/svg" xmlns:xlink="http://www.w3.org/1999/xlink" x="0px" y="0px"
	 width="200px" height="200px" viewBox="0 0 200 200" enable-background="new 0 0 200 200" xml:space="preserve">
<g>
	<g>
		<g>
			<path fill="#E5B92E" d="M126.385,88.769l-4.779-5.622c33.895-28.82,41.174-53.24,37.797-62.622
				c-0.475-1.321-1.369-2.899-2.93-2.921c-3.164-0.022-5.914,1.071-8.188,3.313c-3.752,3.701-6.082,10.385-6.082,17.444h-7.379
				c0-9.099,3.096-17.584,8.279-22.697c3.678-3.628,8.352-5.529,13.471-5.438c4.383,0.061,8.035,2.976,9.771,7.8
				C171.389,32.038,160.988,59.347,126.385,88.769z"/>
		</g>
		<path fill="#E1AE3E" d="M99.75,128.17"/>
		<path fill="#C19721" d="M99.75,89.513h15.581c-2.814,5.851-4.385,12.407-4.385,19.329s1.57,13.477,4.385,19.328H99.75"/>
		<path fill="#E1AE3E" d="M98.84,89.513"/>
		<path fill="#F4CC6B" d="M96.94,20.826"/>
		<path fill="#E5B92E" d="M99.75,21.826h42.397v34.6c0,23.415-18.982,42.397-42.397,42.397"/>
		<path fill="#F4CC6B" d="M99.75,97.823"/>
		<path fill="#E1AE3E" d="M98.666,121.798"/>
		<path fill="#C19721" d="M99.75,145.395h23.622c0-13.045-10.576-23.621-23.622-23.621c-0.363,0,0.359-0.018,0,0"/>
		<polyline fill="#E5B92E" points="99.771,142.98 135.818,142.98 135.818,177.965 99.644,177.965 		"/>
		<path fill="#F4CC6B" d="M99.771,142.98"/>
		<polyline fill="#C19721" stroke="#C19721" stroke-miterlimit="10" points="99.644,177.965 145.619,177.965 145.619,189.77 
			99.771,189.77 		"/>
		<path fill="#C79031" d="M99.307,149.508"/>
		<path fill="#C19721" d="M98.771,171.438h19.391c0-2.58,2.094-4.674,4.674-4.674v-6.291v-6.291c-2.58,0-4.674-2.092-4.674-4.674
			H98.771"/>
	</g>
	<line fill="none" x1="98.665" y1="142.98" x2="98.665" y2="189.459"/>
	<line fill="none" x1="98.665" y1="121.798" x2="98.665" y2="142.98"/>
	<line fill="none" x1="98.665" y1="97.513" x2="98.665" y2="118.824"/>
	<line fill="none" x1="98.665" y1="20.516" x2="98.665" y2="97.513"/>
	<line fill="none" x1="98.665" y1="13.203" x2="98.665" y2="20.516"/>
	<path fill="#F4CC6B" d="M98.665,37.005"/>
	<g>
		<g>
			<path fill="#FFDE5E" d="M73.894,88.769l4.779-5.622C44.779,54.327,37.5,29.907,40.876,20.525
				c0.476-1.321,1.369-2.899,2.931-2.921c3.163-0.022,5.914,1.071,8.188,3.313c3.751,3.701,6.082,10.385,6.082,17.444h7.378
				c0-9.099-3.095-17.584-8.279-22.697c-3.678-3.628-8.351-5.529-13.47-5.438c-4.383,0.061-8.036,2.976-9.772,7.8
				C28.891,32.038,39.291,59.347,73.894,88.769z"/>
		</g>
		<path fill="#E1AE3E" d="M100.53,128.17"/>
		<path fill="#E5B92E" d="M100.53,89.513H84.949c2.815,5.851,4.385,12.407,4.385,19.329s-1.569,13.477-4.385,19.328h15.581"/>
		<path fill="#E1AE3E" d="M101.439,89.513"/>
		<path fill="#F4CC6B" d="M103.34,20.826"/>
		<path fill="#FFDE5E" d="M100.53,21.826H58.133v34.6c0,23.415,18.981,42.397,42.396,42.397"/>
		<path fill="#F4CC6B" d="M100.53,97.823"/>
		<path fill="#E1AE3E" d="M101.613,121.798"/>
		<path fill="#E5B92E" stroke="#E5B92E" stroke-miterlimit="10" d="M100.53,145.395H76.908c0-13.045,10.576-23.621,23.622-23.621
			c0.363,0-0.359-0.018,0,0"/>
		<polyline fill="#FFDE5E" points="100.508,142.98 64.46,142.98 64.46,177.965 100.635,177.965 		"/>
		<path fill="#F4CC6B" d="M100.508,142.98"/>
		<polyline fill="#E5B92E" points="100.635,177.965 54.661,177.965 54.661,189.77 100.508,189.77 		"/>
		<path fill="#C79031" d="M100.973,149.508"/>
		<path fill="#E5B92E" d="M100.508,171.438H81.117c0-2.58-2.093-4.674-4.674-4.674v-6.291v-6.291c2.581,0,4.674-2.092,4.674-4.674
			h19.391"/>
	</g>
	<line fill="none" x1="101.614" y1="142.98" x2="101.614" y2="189.459"/>
	<line fill="none" x1="101.614" y1="121.798" x2="101.614" y2="142.98"/>
	<line fill="none" x1="101.614" y1="97.513" x2="101.614" y2="118.824"/>
	<line fill="none" x1="101.614" y1="20.516" x2="101.614" y2="97.513"/>
	<line fill="none" x1="101.614" y1="13.203" x2="101.614" y2="20.516"/>
	<path fill="#F4CC6B" d="M101.614,37.005"/>
</g>
</svg>
