<?xml version="1.0" encoding="utf-8"?>
<!-- Generator: Adobe Illustrator 16.0.0, SVG Export Plug-In . SVG Version: 6.00 Build 0)  -->
<!DOCTYPE svg PUBLIC "-//W3C//DTD SVG 1.1//EN" "http://www.w3.org/Graphics/SVG/1.1/DTD/svg11.dtd">
<svg version="1.1" id="Capa_1" xmlns="http://www.w3.org/2000/svg" xmlns:xlink="http://www.w3.org/1999/xlink" x="0px" y="0px"
	 width="200px" height="200px" viewBox="0 0 200 200" enable-background="new 0 0 200 200" xml:space="preserve">
<g>
	<path fill="#B2B2B2" d="M126.385,88.769l-4.779-5.622c33.896-28.82,41.174-53.24,37.797-62.622
		c-0.475-1.321-1.368-2.899-2.93-2.921c-3.164-0.022-5.914,1.071-8.188,3.313c-3.752,3.701-6.082,10.385-6.082,17.444h-7.379
		c0-9.099,3.096-17.584,8.279-22.697c3.678-3.628,8.352-5.529,13.471-5.438c4.383,0.061,8.035,2.976,9.771,7.8
		C171.389,32.038,160.988,59.347,126.385,88.769z"/>
</g>
<path fill="#B2B2B2" d="M99.75,128.17"/>
<path fill="#B2B2B2" d="M99.75,89.513h15.581c-2.813,5.851-4.386,12.407-4.386,19.329s1.57,13.477,4.386,19.328H99.75"/>
<path fill="#B2B2B2" d="M98.84,89.513"/>
<path fill="#B2B2B2" d="M96.94,20.826"/>
<path fill="#B2B2B2" d="M99.75,21.826h42.396v34.6c0,23.415-18.981,42.397-42.396,42.397"/>
<path fill="#B2B2B2" d="M99.75,97.823"/>
<path fill="#B2B2B2" d="M98.666,121.798"/>
<path fill="#B2B2B2" d="M99.75,145.395h23.622c0-13.045-10.576-23.621-23.622-23.621c-0.363,0,0.359-0.018,0,0"/>
<polyline fill="#B2B2B2" points="99.771,142.98 135.818,142.98 135.818,177.965 99.644,177.965 "/>
<path fill="#B2B2B2" d="M99.771,142.98"/>
<polyline fill="#B2B2B2" stroke="#B2B2B2" stroke-miterlimit="10" points="99.644,177.965 145.619,177.965 145.619,189.77 
	99.771,189.77 "/>
<path fill="#B2B2B2" d="M99.307,149.508"/>
<path fill="#B2B2B2" d="M98.771,171.438h19.391c0-2.58,2.094-4.674,4.674-4.674v-6.291v-6.291c-2.58,0-4.674-2.092-4.674-4.674
	H98.771"/>
<line fill="#B2B2B2" x1="98.665" y1="142.98" x2="98.665" y2="189.459"/>
<line fill="#B2B2B2" x1="98.665" y1="121.798" x2="98.665" y2="142.98"/>
<line fill="#B2B2B2" x1="98.665" y1="97.513" x2="98.665" y2="118.824"/>
<line fill="#B2B2B2" x1="98.665" y1="20.516" x2="98.665" y2="97.513"/>
<line fill="#B2B2B2" x1="98.665" y1="13.203" x2="98.665" y2="20.516"/>
<path fill="#B2B2B2" d="M98.665,37.005"/>
<g>
	<path fill="#B2B2B2" d="M73.894,88.769l4.779-5.622C44.779,54.327,37.5,29.907,40.876,20.525c0.476-1.321,1.369-2.899,2.931-2.921
		c3.163-0.022,5.914,1.071,8.188,3.313c3.751,3.701,6.082,10.385,6.082,17.444h7.378c0-9.099-3.095-17.584-8.279-22.697
		c-3.678-3.628-8.351-5.529-13.47-5.438c-4.383,0.061-8.036,2.976-9.772,7.8C28.891,32.038,39.291,59.347,73.894,88.769z"/>
</g>
<path fill="#B2B2B2" d="M100.529,128.17"/>
<path fill="#B2B2B2" d="M100.529,89.513h-15.58c2.815,5.851,4.385,12.407,4.385,19.329s-1.569,13.477-4.385,19.328h15.58"/>
<path fill="#B2B2B2" d="M101.439,89.513"/>
<path fill="#B2B2B2" d="M103.34,20.826"/>
<path fill="#B2B2B2" d="M100.529,21.826H58.133v34.6c0,23.415,18.981,42.397,42.396,42.397"/>
<path fill="#B2B2B2" d="M100.529,97.823"/>
<path fill="#B2B2B2" d="M101.613,121.798"/>
<path fill="#B2B2B2" stroke="#B2B2B2" stroke-miterlimit="10" d="M100.529,145.395H76.908c0-13.045,10.576-23.621,23.621-23.621
	c0.363,0-0.358-0.018,0,0"/>
<polyline fill="#B2B2B2" points="100.508,142.98 64.46,142.98 64.46,177.965 100.635,177.965 "/>
<path fill="#B2B2B2" d="M100.508,142.98"/>
<polyline fill="#B2B2B2" points="100.635,177.965 54.661,177.965 54.661,189.77 100.508,189.77 "/>
<path fill="#B2B2B2" d="M100.973,149.508"/>
<path fill="#B2B2B2" d="M100.508,171.438H81.117c0-2.58-2.093-4.674-4.674-4.674v-6.291v-6.291c2.581,0,4.674-2.092,4.674-4.674
	h19.391"/>
<line fill="#B2B2B2" x1="101.613" y1="142.98" x2="101.613" y2="189.459"/>
<line fill="#B2B2B2" x1="101.613" y1="121.798" x2="101.613" y2="142.98"/>
<line fill="#B2B2B2" x1="101.613" y1="97.513" x2="101.613" y2="118.824"/>
<line fill="#B2B2B2" x1="101.613" y1="20.516" x2="101.613" y2="97.513"/>
<line fill="#B2B2B2" x1="101.613" y1="13.203" x2="101.613" y2="20.516"/>
<path fill="#B2B2B2" d="M101.613,37.005"/>
</svg>
