<?xml version="1.0" encoding="utf-8"?>
<!-- Generator: Adobe Illustrator 16.0.0, SVG Export Plug-In . SVG Version: 6.00 Build 0)  -->
<!DOCTYPE svg PUBLIC "-//W3C//DTD SVG 1.1//EN" "http://www.w3.org/Graphics/SVG/1.1/DTD/svg11.dtd">
<svg version="1.1" id="Capa_1" xmlns="http://www.w3.org/2000/svg" xmlns:xlink="http://www.w3.org/1999/xlink" x="0px" y="0px"
	 width="200px" height="200px" viewBox="0 0 200 200" enable-background="new 0 0 200 200" xml:space="preserve">
<g>
	<g>
		<path fill="#9D9D9C" d="M126.416,89.596l-4.779-5.622c33.895-28.82,41.174-53.24,37.797-62.622
			c-0.475-1.321-1.369-2.899-2.93-2.921c-3.164-0.022-5.914,1.071-8.188,3.313c-3.752,3.701-6.082,10.385-6.082,17.444h-7.379
			c0-9.099,3.096-17.584,8.279-22.697c3.678-3.628,8.352-5.529,13.471-5.438c4.383,0.061,8.035,2.976,9.771,7.8
			C171.42,32.865,161.02,60.174,126.416,89.596z"/>
	</g>
	<path fill="#E1AE3E" d="M99.781,128.996"/>
	<path fill="#706F6F" d="M99.781,90.34h15.581c-2.814,5.851-4.385,12.406-4.385,19.328s1.57,13.477,4.385,19.328H99.781"/>
	<path fill="#E1AE3E" d="M98.871,90.34"/>
	<path fill="#F4CC6B" d="M96.97,21.653"/>
	<path fill="#9D9D9C" d="M99.781,22.653h42.397v34.6c0,23.415-18.982,42.397-42.397,42.397"/>
	<path fill="#F4CC6B" d="M99.781,98.65"/>
	<path fill="#E1AE3E" d="M98.697,122.625"/>
	<path fill="#706F6F" d="M99.781,146.223h23.622c0-13.047-10.576-23.623-23.622-23.623c-0.363,0.001,0.36-0.016,0,0"/>
	<polyline fill="#9D9D9C" points="99.802,143.809 135.85,143.809 135.85,178.793 99.675,178.793 	"/>
	<path fill="#F4CC6B" d="M99.802,143.809"/>
	<polyline fill="#706F6F" points="99.675,178.793 145.65,178.793 145.65,190.596 99.802,190.596 	"/>
	<path fill="#C79031" d="M99.337,150.336"/>
	<path fill="#706F6F" d="M98.802,172.266h19.391c0-2.582,2.094-4.674,4.674-4.674v-6.291v-6.291c-2.58,0-4.674-2.094-4.674-4.674
		H98.802"/>
</g>
<line fill="none" x1="98.696" y1="143.808" x2="98.696" y2="190.286"/>
<line fill="none" x1="98.696" y1="122.625" x2="98.696" y2="143.808"/>
<line fill="none" x1="98.696" y1="98.34" x2="98.696" y2="119.652"/>
<line fill="none" x1="98.696" y1="21.343" x2="98.696" y2="98.34"/>
<line fill="none" x1="98.696" y1="14.03" x2="98.696" y2="21.343"/>
<path fill="#F4CC6B" d="M98.696,37.833"/>
<g>
	<g>
		<path fill="#DADADA" d="M73.925,89.596l4.779-5.622c-33.895-28.82-41.174-53.24-37.797-62.622c0.475-1.321,1.369-2.899,2.93-2.921
			c3.164-0.022,5.914,1.071,8.188,3.313c3.752,3.701,6.082,10.385,6.082,17.444h7.379c0-9.099-3.096-17.584-8.279-22.697
			c-3.678-3.628-8.352-5.529-13.471-5.438c-4.383,0.061-8.035,2.976-9.771,7.8C28.921,32.865,39.322,60.174,73.925,89.596z"/>
	</g>
	<path fill="#E1AE3E" d="M100.561,128.996"/>
	<path fill="#9D9D9C" d="M100.561,90.34H84.98c2.814,5.851,4.385,12.406,4.385,19.328s-1.57,13.477-4.385,19.328h15.581"/>
	<path fill="#E1AE3E" d="M101.471,90.34"/>
	<path fill="#F4CC6B" d="M103.371,21.653"/>
	<path fill="#DADADA" d="M100.561,22.653H58.164v34.6c0,23.415,18.982,42.397,42.397,42.397"/>
	<path fill="#F4CC6B" d="M100.561,98.65"/>
	<path fill="#E1AE3E" d="M101.645,122.625"/>
	<path fill="#9D9D9C" d="M100.561,146.223H76.939c0-13.047,10.576-23.623,23.622-23.623c0.363,0.001-0.359-0.016,0,0"/>
	<polyline fill="#DADADA" points="100.539,143.809 64.492,143.809 64.492,178.793 100.666,178.793 	"/>
	<path fill="#F4CC6B" d="M100.539,143.809"/>
	<polyline fill="#9D9D9C" points="100.666,178.793 54.691,178.793 54.691,190.596 100.539,190.596 	"/>
	<path fill="#C79031" d="M101.004,150.336"/>
	<path fill="#9D9D9C" d="M100.539,172.266H81.148c0-2.582-2.094-4.674-4.674-4.674v-6.291v-6.291c2.58,0,4.674-2.094,4.674-4.674
		h19.391"/>
</g>
<line fill="none" x1="101.645" y1="143.808" x2="101.645" y2="190.286"/>
<line fill="none" x1="101.645" y1="122.625" x2="101.645" y2="143.808"/>
<line fill="none" x1="101.645" y1="98.34" x2="101.645" y2="119.652"/>
<line fill="none" x1="101.645" y1="21.343" x2="101.645" y2="98.34"/>
<line fill="none" x1="101.645" y1="14.03" x2="101.645" y2="21.343"/>
<path fill="#F4CC6B" d="M101.645,37.833"/>
</svg>
