<?xml version="1.0" encoding="utf-8"?>
<!-- Generator: Adobe Illustrator 16.0.0, SVG Export Plug-In . SVG Version: 6.00 Build 0)  -->
<!DOCTYPE svg PUBLIC "-//W3C//DTD SVG 1.1//EN" "http://www.w3.org/Graphics/SVG/1.1/DTD/svg11.dtd">
<svg version="1.1" id="Capa_1" xmlns="http://www.w3.org/2000/svg" xmlns:xlink="http://www.w3.org/1999/xlink" x="0px" y="0px"
	 width="200px" height="200px" viewBox="0 0 200 200" enable-background="new 0 0 200 200" xml:space="preserve">
<g>
	<g>
		<g>
			<path fill="#936037" d="M126.628,89.596l-4.779-5.621c33.895-28.82,41.174-53.24,37.797-62.623
				c-0.475-1.32-1.369-2.898-2.93-2.92c-3.164-0.023-5.914,1.07-8.188,3.313c-3.752,3.701-6.082,10.385-6.082,17.445h-7.379
				c0-9.1,3.096-17.584,8.279-22.697c3.678-3.629,8.352-5.529,13.471-5.439c4.383,0.061,8.035,2.977,9.771,7.801
				C171.632,32.865,161.231,60.174,126.628,89.596z"/>
		</g>
		<path fill="#E1AE3E" d="M99.993,128.996"/>
		<path fill="#7D4E24" d="M99.993,90.34h15.58c-2.814,5.852-4.385,12.406-4.385,19.328s1.57,13.477,4.385,19.328h-15.58"/>
		<path fill="#E1AE3E" d="M99.083,90.34"/>
		<path fill="#F4CC6B" d="M97.183,21.653"/>
		<path fill="#936037" d="M99.993,22.653h42.396v34.6c0,23.415-18.982,42.397-42.396,42.397"/>
		<path fill="#F4CC6B" d="M99.993,98.65"/>
		<path fill="#E1AE3E" d="M98.909,122.625"/>
		<path fill="#7D4E24" d="M99.993,146.223h23.621c0-13.047-10.576-23.623-23.621-23.623c-0.363,0.001,0.359-0.016,0,0"/>
		<polyline fill="#936037" points="100.015,143.809 136.062,143.809 136.062,178.793 99.888,178.793 		"/>
		<path fill="#F4CC6B" d="M100.015,143.809"/>
		<polyline fill="#7D4E24" points="99.888,178.793 145.862,178.793 145.862,190.596 100.015,190.596 		"/>
		<path fill="#C79031" d="M99.55,150.336"/>
		<path fill="#7D4E24" d="M99.015,172.266h19.391c0-2.582,2.094-4.674,4.674-4.674v-6.291v-6.291c-2.58,0-4.674-2.094-4.674-4.674
			H99.015"/>
	</g>
	<line fill="none" x1="98.908" y1="143.808" x2="98.908" y2="190.286"/>
	<line fill="none" x1="98.908" y1="122.625" x2="98.908" y2="143.808"/>
	<line fill="none" x1="98.908" y1="98.34" x2="98.908" y2="119.652"/>
	<line fill="none" x1="98.908" y1="21.344" x2="98.908" y2="98.34"/>
	<line fill="none" x1="98.908" y1="14.03" x2="98.908" y2="21.344"/>
	<path fill="#F4CC6B" d="M98.908,37.832"/>
	<g>
		<g>
			<path fill="#CA9E67" d="M74.138,89.596l4.779-5.621c-33.895-28.82-41.174-53.24-37.797-62.623c0.475-1.32,1.369-2.898,2.93-2.92
				c3.164-0.023,5.914,1.07,8.188,3.313c3.752,3.701,6.082,10.385,6.082,17.445h7.379c0-9.1-3.096-17.584-8.279-22.697
				c-3.678-3.629-8.352-5.529-13.471-5.439c-4.383,0.061-8.035,2.977-9.771,7.801C29.134,32.865,39.534,60.174,74.138,89.596z"/>
		</g>
		<path fill="#B17F4A" d="M100.772,128.996"/>
		<path fill="#936037" d="M100.772,90.34h-15.58c2.814,5.852,4.385,12.406,4.385,19.328s-1.57,13.477-4.385,19.328h15.58"/>
		<path fill="#B17F4A" d="M101.683,90.34"/>
		<path fill="#B17F4A" d="M103.583,21.653"/>
		<path fill="#CA9E67" d="M100.772,22.653H58.376v34.6c0,23.415,18.982,42.397,42.396,42.397"/>
		<path fill="#B17F4A" d="M100.772,98.65"/>
		<path fill="#B17F4A" d="M101.856,122.625"/>
		<path fill="#936037" d="M100.772,146.223H77.151c0-13.047,10.576-23.623,23.621-23.623c0.363,0.001-0.359-0.016,0,0"/>
		<polyline fill="#CA9E67" points="100.751,143.809 64.704,143.809 64.704,178.793 100.878,178.793 		"/>
		<path fill="#B17F4A" d="M100.751,143.809"/>
		<polyline fill="#CA9E67" points="100.878,178.793 54.903,178.793 54.903,190.596 100.751,190.596 		"/>
		<path fill="#B17F4A" d="M101.216,150.336"/>
		<path fill="#936037" d="M100.751,172.266H81.36c0-2.582-2.094-4.674-4.674-4.674v-6.291v-6.291c2.58,0,4.674-2.094,4.674-4.674
			h19.391"/>
	</g>
	<line fill="none" x1="101.857" y1="143.808" x2="101.857" y2="190.286"/>
	<line fill="none" x1="101.857" y1="122.625" x2="101.857" y2="143.808"/>
	<line fill="none" x1="101.857" y1="98.34" x2="101.857" y2="119.652"/>
	<line fill="none" x1="101.857" y1="21.344" x2="101.857" y2="98.34"/>
	<line fill="none" x1="101.857" y1="14.03" x2="101.857" y2="21.344"/>
	<path fill="#F4CC6B" d="M101.857,37.832"/>
</g>
</svg>
