<?xml version="1.0" encoding="utf-8"?>
<!-- Generator: Adobe Illustrator 16.0.0, SVG Export Plug-In . SVG Version: 6.00 Build 0)  -->
<!DOCTYPE svg PUBLIC "-//W3C//DTD SVG 1.1//EN" "http://www.w3.org/Graphics/SVG/1.1/DTD/svg11.dtd">
<svg version="1.1" id="Capa_1" xmlns="http://www.w3.org/2000/svg" xmlns:xlink="http://www.w3.org/1999/xlink" x="0px" y="0px"
	 width="200px" height="200px" viewBox="0 0 200 200" enable-background="new 0 0 200 200" xml:space="preserve">
<polygon fill="none" stroke="#9B9B9B" stroke-width="2" stroke-miterlimit="10" points="100.002,100.77 42.387,89.308 
	71.674,116.025 "/>
<polyline fill="none" stroke="#9B9B9B" stroke-width="2" stroke-miterlimit="10" points="82.28,82.444 82.28,82.444 82.28,82.444 
	100.191,42.667 117.561,82.42 159.534,87.108 128.55,115.809 137.063,157.176 100.191,136.578 63.479,157.457 71.674,116.025 
	40.473,87.562 82.408,82.554 100.002,100.77 "/>
<polygon fill="none" stroke="#9B9B9B" stroke-width="2" stroke-miterlimit="10" points="100.002,100.77 65.544,156.283 
	100.191,136.578 "/>
<polygon fill="none" stroke="#9B9B9B" stroke-width="2" stroke-miterlimit="10" points="100.002,100.77 128.55,115.809 
	136.397,153.944 "/>
<polygon fill="none" stroke="#9B9B9B" stroke-width="2" stroke-miterlimit="10" points="100.002,100.77 155.875,87.108 
	117.561,82.42 "/>
<line fill="none" stroke="#9B9B9B" stroke-width="2" stroke-miterlimit="10" x1="100.191" y1="42.667" x2="100.002" y2="100.77"/>
</svg>
