<?xml version="1.0" encoding="utf-8"?>
<!-- Generator: Adobe Illustrator 16.0.0, SVG Export Plug-In . SVG Version: 6.00 Build 0)  -->
<!DOCTYPE svg PUBLIC "-//W3C//DTD SVG 1.1//EN" "http://www.w3.org/Graphics/SVG/1.1/DTD/svg11.dtd">
<svg version="1.1" id="Capa_1" xmlns="http://www.w3.org/2000/svg" xmlns:xlink="http://www.w3.org/1999/xlink" x="0px" y="0px"
	 width="200px" height="200px" viewBox="0 0 200 200" enable-background="new 0 0 200 200" xml:space="preserve">
<g>
	<circle fill="#DADADA" stroke="#706F6F" stroke-width="4" stroke-miterlimit="10" cx="100.372" cy="100.748" r="70.893"/>
	<g>
		<g>
			<g>
				<path fill="#9D9D9C" d="M126.419,67.135c0,0,4.076-10.135,11.893-6.889C138.312,60.246,138.466,68.014,126.419,67.135z"/>
				<path fill="#706F6F" d="M132.452,47.662c0,0-2.383,10.66,5.896,12.414C138.349,60.076,142.878,53.762,132.452,47.662z"/>
			</g>
			<g>
				<path fill="#9D9D9C" d="M134.112,74.613c0,0,6.559-8.738,13.27-3.58C147.382,71.033,145.519,78.576,134.112,74.613z"/>
				<path fill="#706F6F" d="M144.979,57.361c0,0-5.061,9.682,2.482,13.518C147.462,70.879,153.468,65.953,144.979,57.361z"/>
			</g>
			<g>
				<path fill="#9D9D9C" d="M139.608,83.824c0,0,8.596-6.74,13.742-0.023C153.351,83.801,149.599,90.607,139.608,83.824z"/>
				<path fill="#706F6F" d="M154.569,69.975c0,0-7.395,8.041-1.102,13.697C153.468,83.672,160.546,80.471,154.569,69.975z"/>
			</g>
			<g>
				<path fill="#9D9D9C" d="M142.53,94.145c0,0,10.049-4.285,13.283,3.535C155.813,97.68,150.429,103.283,142.53,94.145z"/>
				<path fill="#706F6F" d="M160.567,84.639c0,0-9.225,5.855-4.609,12.947C155.958,97.586,163.626,96.326,160.567,84.639z"/>
			</g>
			<g>
				<path fill="#9D9D9C" d="M142.683,104.869c0,0,10.814-1.539,11.914,6.854C154.597,111.723,147.946,115.742,142.683,104.869z"/>
				<path fill="#706F6F" d="M162.567,100.357c0,0-10.426,3.266-7.805,11.311C154.763,111.668,162.493,112.436,162.567,100.357z"/>
			</g>
			<g>
				<path fill="#9D9D9C" d="M140.056,115.268c0,0,10.844,1.316,9.732,9.703C149.788,124.971,142.325,127.133,140.056,115.268z"/>
				<path fill="#706F6F" d="M160.429,116.057c0,0-10.916,0.457-10.469,8.904C149.96,124.961,157.231,127.703,160.429,116.057z"/>
			</g>
			<g>
				<path fill="#9D9D9C" d="M134.823,124.635c0,0,10.137,4.076,6.895,11.891C141.718,136.525,133.948,136.682,134.823,124.635z"/>
				<path fill="#706F6F" d="M154.302,130.668c0,0-10.664-2.385-12.418,5.893C141.884,136.561,148.196,141.092,154.302,130.668z"/>
			</g>
			<g>
				<path fill="#9D9D9C" d="M127.349,132.324c0,0,8.734,6.563,3.58,13.271C130.929,145.596,123.388,143.736,127.349,132.324z"/>
				<path fill="#706F6F" d="M144.599,143.195c0,0-9.684-5.064-13.516,2.477C131.083,145.672,136.007,151.682,144.599,143.195z"/>
			</g>
			<g>
				<path fill="#9D9D9C" d="M118.138,137.82c0,0,6.738,8.598,0.021,13.744C118.159,151.564,111.356,147.818,118.138,137.82z"/>
				<path fill="#706F6F" d="M131.985,152.783c0,0-8.041-7.396-13.699-1.104C118.286,151.68,121.487,158.76,131.985,152.783z"/>
			</g>
			<g>
				<path fill="#9D9D9C" d="M107.817,140.742c0,0,4.283,10.049-3.535,13.283C104.282,154.025,98.681,148.646,107.817,140.742z"/>
				<path fill="#706F6F" d="M117.319,158.781c0,0-5.852-9.225-12.943-4.611C104.376,154.17,105.636,161.838,117.319,158.781z"/>
			</g>
			<path fill="#9D9D9C" d="M116.524,52.383c0,0,10.434-3.24,12.854,4.869C129.378,57.252,123.452,62.277,116.524,52.383z"/>
			<g>
				<path fill="#706F6F" d="M74.326,67.135c0,0-4.076-10.135-11.893-6.889C62.433,60.246,62.279,68.014,74.326,67.135z"/>
				<path fill="#9D9D9C" d="M68.292,47.662c0,0,2.383,10.66-5.896,12.414C62.396,60.076,57.867,53.762,68.292,47.662z"/>
			</g>
			<g>
				<path fill="#706F6F" d="M66.632,74.613c0,0-6.559-8.738-13.27-3.58C53.363,71.033,55.226,78.576,66.632,74.613z"/>
				<path fill="#9D9D9C" d="M55.765,57.361c0,0,5.061,9.682-2.482,13.518C53.283,70.879,47.277,65.953,55.765,57.361z"/>
			</g>
			<g>
				<path fill="#706F6F" d="M61.136,83.824c0,0-8.596-6.74-13.742-0.023C47.394,83.801,51.146,90.607,61.136,83.824z"/>
				<path fill="#9D9D9C" d="M46.175,69.975c0,0,7.395,8.041,1.102,13.697C47.277,83.672,40.199,80.471,46.175,69.975z"/>
			</g>
			<g>
				<path fill="#706F6F" d="M58.214,94.145c0,0-10.049-4.285-13.283,3.535C44.931,97.68,50.316,103.283,58.214,94.145z"/>
				<path fill="#9D9D9C" d="M40.177,84.639c0,0,9.225,5.855,4.609,12.947C44.787,97.586,37.119,96.326,40.177,84.639z"/>
			</g>
			<g>
				<path fill="#706F6F" d="M58.062,104.869c0,0-10.814-1.539-11.914,6.854C46.148,111.723,52.798,115.742,58.062,104.869z"/>
				<path fill="#9D9D9C" d="M38.177,100.357c0,0,10.426,3.266,7.805,11.311C45.982,111.668,38.251,112.436,38.177,100.357z"/>
			</g>
			<g>
				<path fill="#706F6F" d="M60.689,115.268c0,0-10.844,1.316-9.732,9.703C50.957,124.971,58.419,127.133,60.689,115.268z"/>
				<path fill="#9D9D9C" d="M40.316,116.057c0,0,10.916,0.457,10.469,8.904C50.785,124.961,43.513,127.703,40.316,116.057z"/>
			</g>
			<g>
				<path fill="#706F6F" d="M65.921,124.635c0,0-10.137,4.076-6.895,11.891C59.027,136.525,66.796,136.682,65.921,124.635z"/>
				<path fill="#9D9D9C" d="M46.443,130.668c0,0,10.664-2.385,12.418,5.893C58.861,136.561,52.548,141.092,46.443,130.668z"/>
			</g>
			<g>
				<path fill="#706F6F" d="M73.396,132.324c0,0-8.734,6.563-3.58,13.271C69.816,145.596,77.357,143.736,73.396,132.324z"/>
				<path fill="#9D9D9C" d="M56.146,143.195c0,0,9.684-5.064,13.516,2.477C69.662,145.672,64.738,151.682,56.146,143.195z"/>
			</g>
			<g>
				<path fill="#706F6F" d="M82.607,137.82c0,0-6.738,8.598-0.021,13.744C82.585,151.564,89.388,147.818,82.607,137.82z"/>
				<path fill="#9D9D9C" d="M68.759,152.783c0,0,8.041-7.396,13.699-1.104C82.458,151.68,79.257,158.76,68.759,152.783z"/>
			</g>
			<g>
				<path fill="#706F6F" d="M92.927,140.742c0,0-4.283,10.049,3.535,13.283C96.462,154.025,102.063,148.646,92.927,140.742z"/>
				<path fill="#9D9D9C" d="M83.425,158.781c0,0,5.852-9.225,12.945-4.611C96.371,154.17,95.109,161.838,83.425,158.781z"/>
			</g>
			<path fill="#9D9D9C" d="M84.22,52.383c0,0-10.434-3.24-12.854,4.869C71.367,57.252,77.292,62.277,84.22,52.383z"/>
		</g>
		<g>
			<path fill="#9D9D9C" d="M114.782,127.396c0-1.248-1.012-2.26-2.258-2.26h-6.059c-0.92-1.422-3.447-5.547-4.457-9.426
				c1.086-0.42,1.83-1.232,1.83-2.18h1.619c0.748,0,1.355-0.607,1.355-1.355c0-0.104-0.014-0.203-0.035-0.301h0.734
				c0.75,0,1.357-0.607,1.357-1.357c0-0.445-0.219-0.838-0.553-1.086c1.627-0.41,2.848-2.066,3.76-4.398
				C124.356,102.715,123.96,80.5,123.96,80.5h-9.27h-2.488h-11.793h-0.037v49.156h12.152
				C113.771,129.656,114.782,128.645,114.782,127.396z M114.729,83.213h6.443c-0.301,4.879-1.584,12.961-5.467,16.91
				c-0.813,0.826-1.703,1.434-2.682,1.832C114.538,95.791,114.739,87.451,114.729,83.213z"/>
			<path fill="none" d="M79.572,83.213c0.301,4.879,1.584,12.961,5.467,16.91c0.813,0.826,1.703,1.434,2.682,1.832
				c-1.514-6.164-1.715-14.504-1.705-18.742H79.572z"/>
			<path fill="#706F6F" d="M85.039,100.123c-3.883-3.949-5.166-12.031-5.467-16.91h6.443c-0.01,4.238,0.191,12.578,1.705,18.742
				C86.742,101.557,85.851,100.949,85.039,100.123z M100.335,80.5H88.542h-2.488h-9.268c0,0-0.398,22.215,11.881,24.533
				c0.912,2.332,2.133,3.988,3.76,4.398c-0.332,0.248-0.553,0.641-0.553,1.086c0,0.75,0.607,1.357,1.357,1.357h0.734
				c-0.021,0.098-0.035,0.197-0.035,0.301c0,0.748,0.607,1.355,1.355,1.355h1.619c0,0.947,0.746,1.76,1.83,2.18
				c-1.01,3.879-3.537,8.004-4.457,9.426H88.22c-1.246,0-2.258,1.012-2.258,2.26s1.012,2.26,2.258,2.26h12.152V80.5H100.335z"/>
		</g>
	</g>
</g>
</svg>
